<svg width="1010" height="771" viewBox="0 0 1010 771" fill="none" xmlns="http://www.w3.org/2000/svg">
<g clip-path="url(#clip0)">
<path d="M275.337 752.5H275.272C273.018 752.497 270.858 751.601 269.264 750.008C267.67 748.414 266.774 746.254 266.772 744V245C266.774 242.746 267.67 240.586 269.264 238.992C270.858 237.399 273.018 236.503 275.272 236.5H695.272C697.525 236.503 699.686 237.399 701.279 238.992C702.873 240.586 703.769 242.746 703.772 245V633C703.769 635.242 702.882 637.393 701.303 638.984C699.723 640.576 697.58 641.48 695.338 641.5L275.337 752.5Z" fill="white"/>
<path d="M585.772 166H390.772V53C390.774 50.6139 391.723 48.3263 393.411 46.6391C395.098 44.9518 397.385 44.0027 399.772 44H576.772C579.158 44.0027 581.445 44.9518 583.133 46.6391C584.82 48.3263 585.769 50.6139 585.772 53V166ZM392.772 164H583.772V53C583.77 51.1441 583.031 49.3649 581.719 48.0526C580.407 46.7402 578.628 46.0021 576.772 46H399.772C397.916 46.0021 396.136 46.7402 394.824 48.0526C393.512 49.3649 392.774 51.1441 392.772 53V164Z" fill="#3F3D56"/>
<path d="M446.272 87H530.272C532.393 87 534.428 87.8429 535.928 89.3431C537.429 90.8434 538.272 92.8783 538.272 95V215H438.272V95C438.272 92.8783 439.114 90.8434 440.615 89.3431C442.115 87.8429 444.15 87 446.272 87Z" fill="white"/>
<path d="M462.772 46H421.772V5C421.773 3.67438 422.301 2.40349 423.238 1.46614C424.175 0.528787 425.446 0.00151655 426.772 0H457.772C459.097 0.00151655 460.368 0.528787 461.306 1.46614C462.243 2.40349 462.77 3.67438 462.772 5V46ZM423.772 44H460.772V5C460.771 4.20462 460.455 3.44206 459.892 2.87964C459.33 2.31722 458.567 2.00087 457.772 2H426.772C425.976 2.00087 425.214 2.31722 424.651 2.87964C424.089 3.44206 423.773 4.20462 423.772 5V44Z" fill="#3F3D56"/>
<path d="M799.682 648.84C799.283 648.84 798.895 648.84 798.497 648.83C773.757 648.556 749.969 639.258 731.602 622.683C730.923 622.064 730.249 621.438 729.581 620.804L729.272 620.508V428.856L729.367 428.653C730.029 427.25 730.701 425.867 731.372 424.483C752.172 382.254 776.431 359 799.682 359C833.211 359 859.215 404.994 871.731 432.41C889.136 470.534 901.292 517.774 901.292 547.29C901.284 574.029 890.733 599.687 871.928 618.696C853.123 637.706 827.58 648.533 800.843 648.83C800.469 648.84 800.07 648.84 799.682 648.84ZM731.272 619.651C731.826 620.174 732.385 620.691 732.945 621.201C750.954 637.451 774.277 646.565 798.533 646.83C798.938 646.84 799.321 646.829 799.708 646.84C800.071 646.84 800.443 646.84 800.806 646.831C855.118 646.228 899.292 601.574 899.292 547.29C899.292 518.03 887.21 471.131 869.912 433.24C857.595 406.261 832.093 361 799.682 361C777.233 361 753.612 383.857 733.169 425.362C732.535 426.667 731.899 427.977 731.272 429.304L731.272 619.651Z" fill="#3F3D56"/>
<path d="M799.677 770.088C799.372 770.088 799.079 769.967 798.863 769.751C798.648 769.535 798.527 769.243 798.527 768.937V534.069C798.526 533.917 798.555 533.767 798.612 533.627C798.67 533.486 798.754 533.359 798.861 533.251C798.968 533.144 799.095 533.058 799.235 533C799.375 532.942 799.525 532.912 799.677 532.912C799.829 532.912 799.979 532.942 800.119 533C800.259 533.058 800.386 533.144 800.493 533.251C800.6 533.359 800.684 533.486 800.742 533.627C800.799 533.767 800.828 533.917 800.827 534.069V768.937C800.827 769.243 800.706 769.535 800.49 769.751C800.275 769.967 799.982 770.088 799.677 770.088Z" fill="white"/>
<path d="M202.677 770.088C202.372 770.088 202.079 769.967 201.863 769.751C201.648 769.535 201.527 769.243 201.527 768.937V534.069C201.526 533.917 201.555 533.767 201.612 533.627C201.67 533.486 201.754 533.359 201.861 533.251C201.968 533.144 202.095 533.058 202.235 533C202.375 532.942 202.525 532.912 202.677 532.912C202.829 532.912 202.979 532.942 203.119 533C203.259 533.058 203.386 533.144 203.493 533.251C203.6 533.359 203.684 533.486 203.742 533.627C203.799 533.767 203.828 533.917 203.828 534.069V768.937C203.827 769.243 203.706 769.535 203.491 769.751C203.275 769.967 202.982 770.088 202.677 770.088Z" fill="white"/>
<path d="M799.678 577.951C799.513 577.951 799.35 577.916 799.199 577.847C799.049 577.779 798.916 577.679 798.808 577.554L740.944 510.824C740.745 510.593 740.645 510.293 740.667 509.989C740.689 509.685 740.831 509.402 741.061 509.202C741.291 509.003 741.591 508.903 741.895 508.924C742.199 508.945 742.483 509.086 742.683 509.316L800.546 576.046C800.691 576.213 800.784 576.418 800.816 576.636C800.847 576.854 800.815 577.077 800.724 577.278C800.632 577.478 800.485 577.648 800.299 577.768C800.114 577.887 799.898 577.951 799.678 577.951V577.951Z" fill="white"/>
<path d="M799.677 616.462C799.449 616.462 799.227 616.394 799.038 616.268C798.849 616.141 798.701 615.962 798.614 615.752C798.527 615.541 798.504 615.31 798.549 615.087C798.593 614.864 798.703 614.659 798.864 614.498L831.743 581.618C831.959 581.403 832.251 581.283 832.556 581.283C832.86 581.284 833.152 581.405 833.367 581.62C833.583 581.836 833.704 582.128 833.704 582.432C833.705 582.737 833.584 583.029 833.37 583.245L800.49 616.125C800.384 616.232 800.257 616.317 800.117 616.375C799.978 616.432 799.828 616.462 799.677 616.462Z" fill="white"/>
<path d="M906.124 770.563H820.119V769.563C820.116 763.915 821.226 758.32 823.386 753.101C825.546 747.881 828.713 743.138 832.707 739.143C836.7 735.147 841.442 731.978 846.66 729.816C851.879 727.653 857.472 726.54 863.121 726.54C868.77 726.54 874.364 727.653 879.583 729.816C884.801 731.978 889.543 735.147 893.536 739.143C897.53 743.138 900.697 747.881 902.857 753.101C905.016 758.32 906.127 763.915 906.124 769.563L906.124 770.563ZM822.131 768.563H904.112C903.851 757.865 899.418 747.693 891.759 740.219C884.1 732.744 873.823 728.561 863.121 728.561C852.42 728.561 842.143 732.744 834.484 740.219C826.825 747.693 822.392 757.865 822.131 768.563H822.131Z" fill="#3F3D56"/>
<path d="M863.121 745.156C862.82 745.156 862.531 745.276 862.319 745.489C862.106 745.702 861.986 745.991 861.986 746.292V758.351L850.238 748.268C850.125 748.171 849.994 748.096 849.852 748.05C849.711 748.003 849.561 747.985 849.412 747.996C849.263 748.007 849.118 748.047 848.985 748.115C848.851 748.182 848.733 748.275 848.635 748.388C848.538 748.502 848.464 748.633 848.418 748.775C848.371 748.917 848.353 749.067 848.365 749.215C848.376 749.364 848.417 749.509 848.485 749.643C848.553 749.776 848.646 749.894 848.759 749.991L861.986 761.343V768.428C861.986 768.577 862.015 768.725 862.071 768.864C862.128 769.002 862.212 769.127 862.317 769.233C862.423 769.339 862.548 769.423 862.686 769.48C862.824 769.537 862.972 769.567 863.121 769.567C863.271 769.567 863.419 769.537 863.556 769.48C863.694 769.423 863.82 769.339 863.925 769.233C864.031 769.127 864.114 769.002 864.171 768.864C864.228 768.725 864.257 768.577 864.257 768.428V746.292C864.257 745.991 864.137 745.702 863.924 745.489C863.711 745.276 863.422 745.156 863.121 745.156Z" fill="#3F3D56"/>
<path d="M185.124 770.563H99.1188V769.563C99.1161 763.915 100.226 758.32 102.386 753.101C104.546 747.881 107.713 743.138 111.707 739.143C115.7 735.147 120.442 731.978 125.66 729.816C130.879 727.653 136.472 726.54 142.121 726.54C147.77 726.54 153.364 727.653 158.583 729.816C163.801 731.978 168.543 735.147 172.536 739.143C176.53 743.138 179.697 747.881 181.856 753.101C184.016 758.32 185.127 763.915 185.124 769.563L185.124 770.563ZM101.131 768.563H183.112C182.851 757.865 178.418 747.693 170.759 740.219C163.1 732.744 152.823 728.561 142.121 728.561C131.42 728.561 121.142 732.744 113.484 740.219C105.825 747.693 101.392 757.865 101.131 768.563H101.131Z" fill="#3F3D56"/>
<path d="M142.121 745.156C141.82 745.156 141.531 745.276 141.319 745.489C141.106 745.702 140.986 745.991 140.986 746.292V758.351L129.238 748.268C129.125 748.171 128.994 748.096 128.852 748.05C128.711 748.003 128.561 747.985 128.412 747.996C128.263 748.007 128.118 748.047 127.985 748.115C127.851 748.182 127.733 748.275 127.635 748.388C127.538 748.502 127.464 748.633 127.418 748.775C127.371 748.917 127.353 749.067 127.365 749.215C127.376 749.364 127.417 749.509 127.485 749.643C127.553 749.776 127.646 749.894 127.759 749.991L140.986 761.343V768.428C140.986 768.577 141.015 768.725 141.071 768.864C141.128 769.002 141.212 769.127 141.317 769.233C141.423 769.339 141.548 769.423 141.686 769.48C141.824 769.537 141.972 769.567 142.121 769.567C142.271 769.567 142.419 769.537 142.556 769.48C142.694 769.423 142.82 769.339 142.925 769.233C143.031 769.127 143.114 769.002 143.171 768.864C143.228 768.725 143.257 768.577 143.257 768.428V746.292C143.257 745.991 143.137 745.702 142.924 745.489C142.711 745.276 142.422 745.156 142.121 745.156Z" fill="#3F3D56"/>
<path d="M203.682 648.84C203.283 648.84 202.895 648.84 202.497 648.83C175.762 648.528 150.224 637.698 131.422 618.69C112.621 599.681 102.071 574.026 102.062 547.29C102.062 517.773 114.218 470.533 131.623 432.41C144.14 404.994 170.146 359 203.682 359C217.495 359 231.404 366.873 245.023 382.401C245.699 383.167 246.376 383.955 247.043 384.763L247.272 385.041V639.027L246.708 639.3C246.035 639.626 245.352 639.932 244.669 640.228C232.119 645.781 218.566 648.709 204.842 648.83C204.469 648.84 204.07 648.84 203.682 648.84ZM203.682 361C171.265 361 145.76 406.261 133.443 433.24C116.144 471.13 104.062 518.029 104.062 547.29C104.062 601.565 148.236 646.218 202.533 646.83C202.937 646.84 203.315 646.843 203.708 646.84C204.071 646.84 204.443 646.84 204.806 646.831C218.266 646.713 231.559 643.842 243.867 638.395C244.339 638.191 244.808 637.983 245.272 637.768V385.761C244.693 385.065 244.107 384.386 243.522 383.721C230.297 368.644 216.894 361 203.682 361Z" fill="#3F3D56"/>
<path d="M203.678 577.951C203.513 577.951 203.35 577.916 203.199 577.847C203.049 577.779 202.916 577.679 202.808 577.554L144.944 510.824C144.745 510.593 144.645 510.293 144.667 509.989C144.689 509.685 144.831 509.402 145.061 509.202C145.291 509.003 145.591 508.903 145.895 508.924C146.199 508.945 146.483 509.086 146.683 509.316L204.546 576.046C204.691 576.213 204.784 576.418 204.816 576.636C204.847 576.854 204.815 577.077 204.724 577.278C204.632 577.478 204.485 577.648 204.299 577.768C204.114 577.887 203.898 577.951 203.678 577.951V577.951Z" fill="white"/>
<path d="M203.677 616.462C203.449 616.462 203.227 616.394 203.038 616.268C202.849 616.141 202.701 615.962 202.614 615.752C202.527 615.541 202.504 615.31 202.549 615.087C202.593 614.864 202.703 614.659 202.864 614.498L235.743 581.618C235.959 581.403 236.251 581.283 236.556 581.283C236.86 581.284 237.152 581.405 237.367 581.62C237.583 581.836 237.704 582.128 237.704 582.432C237.705 582.737 237.584 583.029 237.37 583.245L204.49 616.125C204.384 616.232 204.257 616.317 204.117 616.375C203.978 616.432 203.828 616.462 203.677 616.462Z" fill="white"/>
<path d="M294.031 174L294.772 175.46C295.1 176.09 295.271 176.79 295.272 177.5V217H330.272V177.5C330.272 176.79 330.444 176.09 330.772 175.46L331.512 174H294.031ZM328.272 177.5V215H297.272V177.5C297.272 176.995 297.212 176.491 297.091 176H328.452C328.332 176.491 328.271 176.995 328.272 177.5ZM338.031 174L338.772 175.46C339.1 176.09 339.271 176.79 339.272 177.5V217H374.272V177.5C374.272 176.79 374.444 176.09 374.772 175.46L375.512 174H338.031ZM372.272 177.5V215H341.272V177.5C341.272 176.995 341.212 176.491 341.091 176H372.452C372.332 176.491 372.271 176.995 372.272 177.5ZM382.031 174L382.772 175.46C383.1 176.09 383.271 176.79 383.272 177.5V217H418.272V177.5C418.272 176.79 418.444 176.09 418.772 175.46L419.512 174H382.031ZM416.272 177.5V215H385.272V177.5C385.272 176.995 385.212 176.491 385.091 176H416.452C416.332 176.491 416.271 176.995 416.272 177.5ZM426.031 174L426.772 175.46C427.1 176.09 427.271 176.79 427.272 177.5V217H462.272V177.5C462.272 176.79 462.444 176.09 462.772 175.46L463.512 174H426.031ZM460.272 177.5V215H429.272V177.5C429.272 176.995 429.212 176.491 429.091 176H460.452C460.332 176.491 460.271 176.995 460.272 177.5ZM470.031 174L470.772 175.46C471.1 176.09 471.271 176.79 471.272 177.5V217H506.272V177.5C506.272 176.79 506.444 176.09 506.772 175.46L507.512 174H470.031ZM504.272 177.5V215H473.272V177.5C473.272 176.995 473.212 176.491 473.091 176H504.452C504.332 176.491 504.271 176.995 504.272 177.5ZM514.031 174L514.772 175.46C515.1 176.09 515.271 176.79 515.272 177.5V217H550.272V177.5C550.272 176.79 550.444 176.09 550.772 175.46L551.512 174H514.031ZM548.272 177.5V215H517.272V177.5C517.272 176.995 517.212 176.491 517.091 176H548.452C548.332 176.491 548.271 176.995 548.272 177.5ZM558.031 174L558.772 175.46C559.1 176.09 559.271 176.79 559.272 177.5V217H594.272V177.5C594.272 176.79 594.444 176.09 594.772 175.46L595.512 174H558.031ZM592.272 177.5V215H561.272V177.5C561.272 176.995 561.212 176.491 561.091 176H592.452C592.332 176.491 592.271 176.995 592.272 177.5ZM602.031 174L602.772 175.46C603.1 176.09 603.271 176.79 603.272 177.5V217H638.272V177.5C638.272 176.79 638.444 176.09 638.772 175.46L639.512 174H602.031ZM636.272 177.5V215H605.272V177.5C605.272 176.995 605.212 176.491 605.091 176H636.452C636.332 176.491 636.271 176.995 636.272 177.5ZM646.031 174L646.772 175.46C647.1 176.09 647.271 176.79 647.272 177.5V217H682.272V177.5C682.272 176.79 682.444 176.09 682.772 175.46L683.512 174H646.031ZM680.272 177.5V215H649.272V177.5C649.272 176.995 649.212 176.491 649.091 176H680.452C680.332 176.491 680.271 176.995 680.272 177.5ZM646.031 174L646.772 175.46C647.1 176.09 647.271 176.79 647.272 177.5V217H682.272V177.5C682.272 176.79 682.444 176.09 682.772 175.46L683.512 174H646.031ZM680.272 177.5V215H649.272V177.5C649.272 176.995 649.212 176.491 649.091 176H680.452C680.332 176.491 680.271 176.995 680.272 177.5ZM602.031 174L602.772 175.46C603.1 176.09 603.271 176.79 603.272 177.5V217H638.272V177.5C638.272 176.79 638.444 176.09 638.772 175.46L639.512 174H602.031ZM636.272 177.5V215H605.272V177.5C605.272 176.995 605.212 176.491 605.091 176H636.452C636.332 176.491 636.271 176.995 636.272 177.5ZM558.031 174L558.772 175.46C559.1 176.09 559.271 176.79 559.272 177.5V217H594.272V177.5C594.272 176.79 594.444 176.09 594.772 175.46L595.512 174H558.031ZM592.272 177.5V215H561.272V177.5C561.272 176.995 561.212 176.491 561.091 176H592.452C592.332 176.491 592.271 176.995 592.272 177.5ZM514.031 174L514.772 175.46C515.1 176.09 515.271 176.79 515.272 177.5V217H550.272V177.5C550.272 176.79 550.444 176.09 550.772 175.46L551.512 174H514.031ZM548.272 177.5V215H517.272V177.5C517.272 176.995 517.212 176.491 517.091 176H548.452C548.332 176.491 548.271 176.995 548.272 177.5ZM470.031 174L470.772 175.46C471.1 176.09 471.271 176.79 471.272 177.5V217H506.272V177.5C506.272 176.79 506.444 176.09 506.772 175.46L507.512 174H470.031ZM504.272 177.5V215H473.272V177.5C473.272 176.995 473.212 176.491 473.091 176H504.452C504.332 176.491 504.271 176.995 504.272 177.5ZM426.031 174L426.772 175.46C427.1 176.09 427.271 176.79 427.272 177.5V217H462.272V177.5C462.272 176.79 462.444 176.09 462.772 175.46L463.512 174H426.031ZM460.272 177.5V215H429.272V177.5C429.272 176.995 429.212 176.491 429.091 176H460.452C460.332 176.491 460.271 176.995 460.272 177.5ZM382.031 174L382.772 175.46C383.1 176.09 383.271 176.79 383.272 177.5V217H418.272V177.5C418.272 176.79 418.444 176.09 418.772 175.46L419.512 174H382.031ZM416.272 177.5V215H385.272V177.5C385.272 176.995 385.212 176.491 385.091 176H416.452C416.332 176.491 416.271 176.995 416.272 177.5ZM338.031 174L338.772 175.46C339.1 176.09 339.271 176.79 339.272 177.5V217H374.272V177.5C374.272 176.79 374.444 176.09 374.772 175.46L375.512 174H338.031ZM372.272 177.5V215H341.272V177.5C341.272 176.995 341.212 176.491 341.091 176H372.452C372.332 176.491 372.271 176.995 372.272 177.5ZM294.031 174L294.772 175.46C295.1 176.09 295.271 176.79 295.272 177.5V217H330.272V177.5C330.272 176.79 330.444 176.09 330.772 175.46L331.512 174H294.031ZM328.272 177.5V215H297.272V177.5C297.272 176.995 297.212 176.491 297.091 176H328.452C328.332 176.491 328.271 176.995 328.272 177.5ZM646.031 174L646.772 175.46C647.1 176.09 647.271 176.79 647.272 177.5V217H682.272V177.5C682.272 176.79 682.444 176.09 682.772 175.46L683.512 174H646.031ZM680.272 177.5V215H649.272V177.5C649.272 176.995 649.212 176.491 649.091 176H680.452C680.332 176.491 680.271 176.995 680.272 177.5ZM602.031 174L602.772 175.46C603.1 176.09 603.271 176.79 603.272 177.5V217H638.272V177.5C638.272 176.79 638.444 176.09 638.772 175.46L639.512 174H602.031ZM636.272 177.5V215H605.272V177.5C605.272 176.995 605.212 176.491 605.091 176H636.452C636.332 176.491 636.271 176.995 636.272 177.5ZM558.031 174L558.772 175.46C559.1 176.09 559.271 176.79 559.272 177.5V217H594.272V177.5C594.272 176.79 594.444 176.09 594.772 175.46L595.512 174H558.031ZM592.272 177.5V215H561.272V177.5C561.272 176.995 561.212 176.491 561.091 176H592.452C592.332 176.491 592.271 176.995 592.272 177.5ZM514.031 174L514.772 175.46C515.1 176.09 515.271 176.79 515.272 177.5V217H550.272V177.5C550.272 176.79 550.444 176.09 550.772 175.46L551.512 174H514.031ZM548.272 177.5V215H517.272V177.5C517.272 176.995 517.212 176.491 517.091 176H548.452C548.332 176.491 548.271 176.995 548.272 177.5ZM470.031 174L470.772 175.46C471.1 176.09 471.271 176.79 471.272 177.5V217H506.272V177.5C506.272 176.79 506.444 176.09 506.772 175.46L507.512 174H470.031ZM504.272 177.5V215H473.272V177.5C473.272 176.995 473.212 176.491 473.091 176H504.452C504.332 176.491 504.271 176.995 504.272 177.5ZM426.031 174L426.772 175.46C427.1 176.09 427.271 176.79 427.272 177.5V217H462.272V177.5C462.272 176.79 462.444 176.09 462.772 175.46L463.512 174H426.031ZM460.272 177.5V215H429.272V177.5C429.272 176.995 429.212 176.491 429.091 176H460.452C460.332 176.491 460.271 176.995 460.272 177.5ZM382.031 174L382.772 175.46C383.1 176.09 383.271 176.79 383.272 177.5V217H418.272V177.5C418.272 176.79 418.444 176.09 418.772 175.46L419.512 174H382.031ZM416.272 177.5V215H385.272V177.5C385.272 176.995 385.212 176.491 385.091 176H416.452C416.332 176.491 416.271 176.995 416.272 177.5ZM338.031 174L338.772 175.46C339.1 176.09 339.271 176.79 339.272 177.5V217H374.272V177.5C374.272 176.79 374.444 176.09 374.772 175.46L375.512 174H338.031ZM372.272 177.5V215H341.272V177.5C341.272 176.995 341.212 176.491 341.091 176H372.452C372.332 176.491 372.271 176.995 372.272 177.5ZM294.031 174L294.772 175.46C295.1 176.09 295.271 176.79 295.272 177.5V217H330.272V177.5C330.272 176.79 330.444 176.09 330.772 175.46L331.512 174H294.031ZM328.272 177.5V215H297.272V177.5C297.272 176.995 297.212 176.491 297.091 176H328.452C328.332 176.491 328.271 176.995 328.272 177.5ZM646.031 174L646.772 175.46C647.1 176.09 647.271 176.79 647.272 177.5V217H682.272V177.5C682.272 176.79 682.444 176.09 682.772 175.46L683.512 174H646.031ZM680.272 177.5V215H649.272V177.5C649.272 176.995 649.212 176.491 649.091 176H680.452C680.332 176.491 680.271 176.995 680.272 177.5ZM602.031 174L602.772 175.46C603.1 176.09 603.271 176.79 603.272 177.5V217H638.272V177.5C638.272 176.79 638.444 176.09 638.772 175.46L639.512 174H602.031ZM636.272 177.5V215H605.272V177.5C605.272 176.995 605.212 176.491 605.091 176H636.452C636.332 176.491 636.271 176.995 636.272 177.5ZM558.031 174L558.772 175.46C559.1 176.09 559.271 176.79 559.272 177.5V217H594.272V177.5C594.272 176.79 594.444 176.09 594.772 175.46L595.512 174H558.031ZM592.272 177.5V215H561.272V177.5C561.272 176.995 561.212 176.491 561.091 176H592.452C592.332 176.491 592.271 176.995 592.272 177.5ZM514.031 174L514.772 175.46C515.1 176.09 515.271 176.79 515.272 177.5V217H550.272V177.5C550.272 176.79 550.444 176.09 550.772 175.46L551.512 174H514.031ZM548.272 177.5V215H517.272V177.5C517.272 176.995 517.212 176.491 517.091 176H548.452C548.332 176.491 548.271 176.995 548.272 177.5ZM470.031 174L470.772 175.46C471.1 176.09 471.271 176.79 471.272 177.5V217H506.272V177.5C506.272 176.79 506.444 176.09 506.772 175.46L507.512 174H470.031ZM504.272 177.5V215H473.272V177.5C473.272 176.995 473.212 176.491 473.091 176H504.452C504.332 176.491 504.271 176.995 504.272 177.5ZM426.031 174L426.772 175.46C427.1 176.09 427.271 176.79 427.272 177.5V217H462.272V177.5C462.272 176.79 462.444 176.09 462.772 175.46L463.512 174H426.031ZM460.272 177.5V215H429.272V177.5C429.272 176.995 429.212 176.491 429.091 176H460.452C460.332 176.491 460.271 176.995 460.272 177.5ZM382.031 174L382.772 175.46C383.1 176.09 383.271 176.79 383.272 177.5V217H418.272V177.5C418.272 176.79 418.444 176.09 418.772 175.46L419.512 174H382.031ZM416.272 177.5V215H385.272V177.5C385.272 176.995 385.212 176.491 385.091 176H416.452C416.332 176.491 416.271 176.995 416.272 177.5ZM338.031 174L338.772 175.46C339.1 176.09 339.271 176.79 339.272 177.5V217H374.272V177.5C374.272 176.79 374.444 176.09 374.772 175.46L375.512 174H338.031ZM372.272 177.5V215H341.272V177.5C341.272 176.995 341.212 176.491 341.091 176H372.452C372.332 176.491 372.271 176.995 372.272 177.5ZM294.031 174L294.772 175.46C295.1 176.09 295.271 176.79 295.272 177.5V217H330.272V177.5C330.272 176.79 330.444 176.09 330.772 175.46L331.512 174H294.031ZM328.272 177.5V215H297.272V177.5C297.272 176.995 297.212 176.491 297.091 176H328.452C328.332 176.491 328.271 176.995 328.272 177.5ZM646.031 174L646.772 175.46C647.1 176.09 647.271 176.79 647.272 177.5V217H682.272V177.5C682.272 176.79 682.444 176.09 682.772 175.46L683.512 174H646.031ZM680.272 177.5V215H649.272V177.5C649.272 176.995 649.212 176.491 649.091 176H680.452C680.332 176.491 680.271 176.995 680.272 177.5ZM602.031 174L602.772 175.46C603.1 176.09 603.271 176.79 603.272 177.5V217H638.272V177.5C638.272 176.79 638.444 176.09 638.772 175.46L639.512 174H602.031ZM636.272 177.5V215H605.272V177.5C605.272 176.995 605.212 176.491 605.091 176H636.452C636.332 176.491 636.271 176.995 636.272 177.5ZM558.031 174L558.772 175.46C559.1 176.09 559.271 176.79 559.272 177.5V217H594.272V177.5C594.272 176.79 594.444 176.09 594.772 175.46L595.512 174H558.031ZM592.272 177.5V215H561.272V177.5C561.272 176.995 561.212 176.491 561.091 176H592.452C592.332 176.491 592.271 176.995 592.272 177.5ZM514.031 174L514.772 175.46C515.1 176.09 515.271 176.79 515.272 177.5V217H550.272V177.5C550.272 176.79 550.444 176.09 550.772 175.46L551.512 174H514.031ZM548.272 177.5V215H517.272V177.5C517.272 176.995 517.212 176.491 517.091 176H548.452C548.332 176.491 548.271 176.995 548.272 177.5ZM470.031 174L470.772 175.46C471.1 176.09 471.271 176.79 471.272 177.5V217H506.272V177.5C506.272 176.79 506.444 176.09 506.772 175.46L507.512 174H470.031ZM504.272 177.5V215H473.272V177.5C473.272 176.995 473.212 176.491 473.091 176H504.452C504.332 176.491 504.271 176.995 504.272 177.5ZM426.031 174L426.772 175.46C427.1 176.09 427.271 176.79 427.272 177.5V217H462.272V177.5C462.272 176.79 462.444 176.09 462.772 175.46L463.512 174H426.031ZM460.272 177.5V215H429.272V177.5C429.272 176.995 429.212 176.491 429.091 176H460.452C460.332 176.491 460.271 176.995 460.272 177.5ZM382.031 174L382.772 175.46C383.1 176.09 383.271 176.79 383.272 177.5V217H418.272V177.5C418.272 176.79 418.444 176.09 418.772 175.46L419.512 174H382.031ZM416.272 177.5V215H385.272V177.5C385.272 176.995 385.212 176.491 385.091 176H416.452C416.332 176.491 416.271 176.995 416.272 177.5ZM338.031 174L338.772 175.46C339.1 176.09 339.271 176.79 339.272 177.5V217H374.272V177.5C374.272 176.79 374.444 176.09 374.772 175.46L375.512 174H338.031ZM372.272 177.5V215H341.272V177.5C341.272 176.995 341.212 176.491 341.091 176H372.452C372.332 176.491 372.271 176.995 372.272 177.5ZM294.031 174L294.772 175.46C295.1 176.09 295.271 176.79 295.272 177.5V217H330.272V177.5C330.272 176.79 330.444 176.09 330.772 175.46L331.512 174H294.031ZM328.272 177.5V215H297.272V177.5C297.272 176.995 297.212 176.491 297.091 176H328.452C328.332 176.491 328.271 176.995 328.272 177.5ZM646.031 174L646.772 175.46C647.1 176.09 647.271 176.79 647.272 177.5V217H682.272V177.5C682.272 176.79 682.444 176.09 682.772 175.46L683.512 174H646.031ZM680.272 177.5V215H649.272V177.5C649.272 176.995 649.212 176.491 649.091 176H680.452C680.332 176.491 680.271 176.995 680.272 177.5ZM602.772 175.46C603.1 176.09 603.271 176.79 603.272 177.5V217H638.272V177.5C638.272 176.79 638.444 176.09 638.772 175.46L639.512 174H602.031L602.772 175.46ZM636.452 176C636.332 176.491 636.271 176.995 636.272 177.5V215H605.272V177.5C605.272 176.995 605.212 176.491 605.091 176H636.452ZM558.772 175.46C559.1 176.09 559.271 176.79 559.272 177.5V217H594.272V177.5C594.272 176.79 594.444 176.09 594.772 175.46L595.512 174H558.031L558.772 175.46ZM592.452 176C592.332 176.491 592.271 176.995 592.272 177.5V215H561.272V177.5C561.272 176.995 561.212 176.491 561.091 176H592.452ZM514.772 175.46C515.1 176.09 515.271 176.79 515.272 177.5V217H550.272V177.5C550.272 176.79 550.444 176.09 550.772 175.46L551.512 174H514.031L514.772 175.46ZM548.452 176C548.332 176.491 548.271 176.995 548.272 177.5V215H517.272V177.5C517.272 176.995 517.212 176.491 517.091 176H548.452ZM470.772 175.46C471.1 176.09 471.271 176.79 471.272 177.5V217H506.272V177.5C506.272 176.79 506.444 176.09 506.772 175.46L507.512 174H470.031L470.772 175.46ZM504.452 176C504.332 176.491 504.271 176.995 504.272 177.5V215H473.272V177.5C473.272 176.995 473.212 176.491 473.091 176H504.452ZM426.772 175.46C427.1 176.09 427.271 176.79 427.272 177.5V217H462.272V177.5C462.272 176.79 462.444 176.09 462.772 175.46L463.512 174H426.031L426.772 175.46ZM460.452 176C460.332 176.491 460.271 176.995 460.272 177.5V215H429.272V177.5C429.272 176.995 429.212 176.491 429.091 176H460.452ZM382.772 175.46C383.1 176.09 383.271 176.79 383.272 177.5V217H418.272V177.5C418.272 176.79 418.444 176.09 418.772 175.46L419.512 174H382.031L382.772 175.46ZM416.452 176C416.332 176.491 416.271 176.995 416.272 177.5V215H385.272V177.5C385.272 176.995 385.212 176.491 385.091 176H416.452ZM338.772 175.46C339.1 176.09 339.271 176.79 339.272 177.5V217H374.272V177.5C374.272 176.79 374.444 176.09 374.772 175.46L375.512 174H338.031L338.772 175.46ZM372.452 176C372.332 176.491 372.271 176.995 372.272 177.5V215H341.272V177.5C341.272 176.995 341.212 176.491 341.091 176H372.452ZM294.772 175.46C295.1 176.09 295.271 176.79 295.272 177.5V217H330.272V177.5C330.272 176.79 330.444 176.09 330.772 175.46L331.512 174H294.031L294.772 175.46ZM328.452 176C328.332 176.491 328.271 176.995 328.272 177.5V215H297.272V177.5C297.272 176.995 297.212 176.491 297.091 176H328.452ZM646.772 175.46C647.1 176.09 647.271 176.79 647.272 177.5V217H682.272V177.5C682.272 176.79 682.444 176.09 682.772 175.46L683.512 174H646.031L646.772 175.46ZM680.452 176C680.332 176.491 680.271 176.995 680.272 177.5V215H649.272V177.5C649.272 176.995 649.212 176.491 649.091 176H680.452ZM602.772 175.46C603.1 176.09 603.271 176.79 603.272 177.5V217H638.272V177.5C638.272 176.79 638.444 176.09 638.772 175.46L639.512 174H602.031L602.772 175.46ZM636.452 176C636.332 176.491 636.271 176.995 636.272 177.5V215H605.272V177.5C605.272 176.995 605.212 176.491 605.091 176H636.452ZM558.772 175.46C559.1 176.09 559.271 176.79 559.272 177.5V217H594.272V177.5C594.272 176.79 594.444 176.09 594.772 175.46L595.512 174H558.031L558.772 175.46ZM592.452 176C592.332 176.491 592.271 176.995 592.272 177.5V215H561.272V177.5C561.272 176.995 561.212 176.491 561.091 176H592.452ZM514.772 175.46C515.1 176.09 515.271 176.79 515.272 177.5V217H550.272V177.5C550.272 176.79 550.444 176.09 550.772 175.46L551.512 174H514.031L514.772 175.46ZM548.452 176C548.332 176.491 548.271 176.995 548.272 177.5V215H517.272V177.5C517.272 176.995 517.212 176.491 517.091 176H548.452ZM470.772 175.46C471.1 176.09 471.271 176.79 471.272 177.5V217H506.272V177.5C506.272 176.79 506.444 176.09 506.772 175.46L507.512 174H470.031L470.772 175.46ZM504.452 176C504.332 176.491 504.271 176.995 504.272 177.5V215H473.272V177.5C473.272 176.995 473.212 176.491 473.091 176H504.452ZM426.772 175.46C427.1 176.09 427.271 176.79 427.272 177.5V217H462.272V177.5C462.272 176.79 462.444 176.09 462.772 175.46L463.512 174H426.031L426.772 175.46ZM460.452 176C460.332 176.491 460.271 176.995 460.272 177.5V215H429.272V177.5C429.272 176.995 429.212 176.491 429.091 176H460.452ZM382.772 175.46C383.1 176.09 383.271 176.79 383.272 177.5V217H418.272V177.5C418.272 176.79 418.444 176.09 418.772 175.46L419.512 174H382.031L382.772 175.46ZM416.452 176C416.332 176.491 416.271 176.995 416.272 177.5V215H385.272V177.5C385.272 176.995 385.212 176.491 385.091 176H416.452ZM338.772 175.46C339.1 176.09 339.271 176.79 339.272 177.5V217H374.272V177.5C374.272 176.79 374.444 176.09 374.772 175.46L375.512 174H338.031L338.772 175.46ZM372.452 176C372.332 176.491 372.271 176.995 372.272 177.5V215H341.272V177.5C341.272 176.995 341.212 176.491 341.091 176H372.452ZM294.772 175.46C295.1 176.09 295.271 176.79 295.272 177.5V217H330.272V177.5C330.272 176.79 330.444 176.09 330.772 175.46L331.512 174H294.031L294.772 175.46ZM328.452 176C328.332 176.491 328.271 176.995 328.272 177.5V215H297.272V177.5C297.272 176.995 297.212 176.491 297.091 176H328.452ZM722.272 223H710.352C709.694 220.7 708.307 218.675 706.398 217.232C704.49 215.789 702.164 215.006 699.772 215H693.272V177.5C693.274 176.695 693.121 175.897 692.821 175.15C693.955 174.483 694.837 173.461 695.331 172.243C695.826 171.025 695.906 169.677 695.559 168.409C695.212 167.141 694.458 166.022 693.412 165.225C692.366 164.428 691.087 163.998 689.772 164H287.772C286.457 163.998 285.178 164.428 284.132 165.225C283.085 166.022 282.331 167.141 281.984 168.409C281.637 169.677 281.717 171.025 282.212 172.243C282.707 173.461 283.589 174.483 284.722 175.15C284.422 175.897 284.269 176.695 284.272 177.5V215H277.772C275.379 215.006 273.053 215.789 271.145 217.232C269.236 218.675 267.849 220.7 267.192 223H254.272C251.886 223.004 249.599 223.953 247.912 225.64C246.225 227.327 245.275 229.614 245.272 232V760C245.277 762.385 246.227 764.671 247.913 766.358C249.6 768.045 251.886 768.995 254.272 769H722.272C724.658 768.997 726.945 768.047 728.632 766.36C730.319 764.673 731.268 762.386 731.272 760V232C731.268 229.614 730.319 227.327 728.632 225.64C726.945 223.953 724.657 223.004 722.272 223ZM729.272 760C729.27 761.429 728.831 762.823 728.014 763.996C727.198 765.169 726.042 766.063 724.702 766.56C723.926 766.855 723.102 767.005 722.272 767H254.272C253.441 767.005 252.617 766.855 251.841 766.56C250.502 766.063 249.346 765.169 248.529 763.996C247.712 762.823 247.273 761.429 247.272 760V232C247.274 230.144 248.012 228.365 249.324 227.053C250.636 225.74 252.416 225.002 254.272 225H268.792L268.952 224.2C269.372 222.17 270.478 220.346 272.084 219.035C273.69 217.724 275.698 217.006 277.772 217H286.272V177.5C286.272 176.686 286.493 175.888 286.912 175.19L287.531 174.16L286.401 173.74C285.518 173.42 284.777 172.798 284.307 171.985C283.837 171.172 283.669 170.219 283.833 169.294C283.996 168.369 284.481 167.532 285.202 166.929C285.922 166.326 286.832 165.997 287.772 166H689.772C690.711 165.997 691.621 166.326 692.341 166.929C693.062 167.532 693.547 168.369 693.711 169.294C693.874 170.219 693.706 171.172 693.236 171.985C692.767 172.799 692.025 173.42 691.142 173.74L690.012 174.16L690.631 175.19C691.05 175.888 691.272 176.686 691.272 177.5V217H699.772C701.845 217.005 703.853 217.724 705.459 219.035C707.065 220.346 708.171 222.17 708.591 224.2L708.752 225H722.272C724.127 225.002 725.907 225.74 727.219 227.053C728.531 228.365 729.27 230.144 729.272 232L729.272 760ZM294.031 174L294.772 175.46C295.1 176.09 295.271 176.79 295.272 177.5V217H330.272V177.5C330.272 176.79 330.444 176.09 330.772 175.46L331.512 174H294.031ZM328.272 177.5V215H297.272V177.5C297.272 176.995 297.212 176.491 297.091 176H328.452C328.332 176.491 328.271 176.995 328.272 177.5ZM338.031 174L338.772 175.46C339.1 176.09 339.271 176.79 339.272 177.5V217H374.272V177.5C374.272 176.79 374.444 176.09 374.772 175.46L375.512 174H338.031ZM372.272 177.5V215H341.272V177.5C341.272 176.995 341.212 176.491 341.091 176H372.452C372.332 176.491 372.271 176.995 372.272 177.5ZM382.031 174L382.772 175.46C383.1 176.09 383.271 176.79 383.272 177.5V217H418.272V177.5C418.272 176.79 418.444 176.09 418.772 175.46L419.512 174H382.031ZM416.272 177.5V215H385.272V177.5C385.272 176.995 385.212 176.491 385.091 176H416.452C416.332 176.491 416.271 176.995 416.272 177.5ZM426.031 174L426.772 175.46C427.1 176.09 427.271 176.79 427.272 177.5V217H462.272V177.5C462.272 176.79 462.444 176.09 462.772 175.46L463.512 174H426.031ZM460.272 177.5V215H429.272V177.5C429.272 176.995 429.212 176.491 429.091 176H460.452C460.332 176.491 460.271 176.995 460.272 177.5ZM470.031 174L470.772 175.46C471.1 176.09 471.271 176.79 471.272 177.5V217H506.272V177.5C506.272 176.79 506.444 176.09 506.772 175.46L507.512 174H470.031ZM504.272 177.5V215H473.272V177.5C473.272 176.995 473.212 176.491 473.091 176H504.452C504.332 176.491 504.271 176.995 504.272 177.5ZM514.031 174L514.772 175.46C515.1 176.09 515.271 176.79 515.272 177.5V217H550.272V177.5C550.272 176.79 550.444 176.09 550.772 175.46L551.512 174H514.031ZM548.272 177.5V215H517.272V177.5C517.272 176.995 517.212 176.491 517.091 176H548.452C548.332 176.491 548.271 176.995 548.272 177.5ZM558.031 174L558.772 175.46C559.1 176.09 559.271 176.79 559.272 177.5V217H594.272V177.5C594.272 176.79 594.444 176.09 594.772 175.46L595.512 174H558.031ZM592.272 177.5V215H561.272V177.5C561.272 176.995 561.212 176.491 561.091 176H592.452C592.332 176.491 592.271 176.995 592.272 177.5ZM602.031 174L602.772 175.46C603.1 176.09 603.271 176.79 603.272 177.5V217H638.272V177.5C638.272 176.79 638.444 176.09 638.772 175.46L639.512 174H602.031ZM636.272 177.5V215H605.272V177.5C605.272 176.995 605.212 176.491 605.091 176H636.452C636.332 176.491 636.271 176.995 636.272 177.5ZM646.031 174L646.772 175.46C647.1 176.09 647.271 176.79 647.272 177.5V217H682.272V177.5C682.272 176.79 682.444 176.09 682.772 175.46L683.512 174H646.031ZM680.272 177.5V215H649.272V177.5C649.272 176.995 649.212 176.491 649.091 176H680.452C680.332 176.491 680.271 176.995 680.272 177.5ZM294.031 174L294.772 175.46C295.1 176.09 295.271 176.79 295.272 177.5V217H330.272V177.5C330.272 176.79 330.444 176.09 330.772 175.46L331.512 174H294.031ZM328.272 177.5V215H297.272V177.5C297.272 176.995 297.212 176.491 297.091 176H328.452C328.332 176.491 328.271 176.995 328.272 177.5ZM338.031 174L338.772 175.46C339.1 176.09 339.271 176.79 339.272 177.5V217H374.272V177.5C374.272 176.79 374.444 176.09 374.772 175.46L375.512 174H338.031ZM372.272 177.5V215H341.272V177.5C341.272 176.995 341.212 176.491 341.091 176H372.452C372.332 176.491 372.271 176.995 372.272 177.5ZM382.031 174L382.772 175.46C383.1 176.09 383.271 176.79 383.272 177.5V217H418.272V177.5C418.272 176.79 418.444 176.09 418.772 175.46L419.512 174H382.031ZM416.272 177.5V215H385.272V177.5C385.272 176.995 385.212 176.491 385.091 176H416.452C416.332 176.491 416.271 176.995 416.272 177.5ZM426.031 174L426.772 175.46C427.1 176.09 427.271 176.79 427.272 177.5V217H462.272V177.5C462.272 176.79 462.444 176.09 462.772 175.46L463.512 174H426.031ZM460.272 177.5V215H429.272V177.5C429.272 176.995 429.212 176.491 429.091 176H460.452C460.332 176.491 460.271 176.995 460.272 177.5ZM470.031 174L470.772 175.46C471.1 176.09 471.271 176.79 471.272 177.5V217H506.272V177.5C506.272 176.79 506.444 176.09 506.772 175.46L507.512 174H470.031ZM504.272 177.5V215H473.272V177.5C473.272 176.995 473.212 176.491 473.091 176H504.452C504.332 176.491 504.271 176.995 504.272 177.5ZM514.031 174L514.772 175.46C515.1 176.09 515.271 176.79 515.272 177.5V217H550.272V177.5C550.272 176.79 550.444 176.09 550.772 175.46L551.512 174H514.031ZM548.272 177.5V215H517.272V177.5C517.272 176.995 517.212 176.491 517.091 176H548.452C548.332 176.491 548.271 176.995 548.272 177.5ZM558.031 174L558.772 175.46C559.1 176.09 559.271 176.79 559.272 177.5V217H594.272V177.5C594.272 176.79 594.444 176.09 594.772 175.46L595.512 174H558.031ZM592.272 177.5V215H561.272V177.5C561.272 176.995 561.212 176.491 561.091 176H592.452C592.332 176.491 592.271 176.995 592.272 177.5ZM602.031 174L602.772 175.46C603.1 176.09 603.271 176.79 603.272 177.5V217H638.272V177.5C638.272 176.79 638.444 176.09 638.772 175.46L639.512 174H602.031ZM636.272 177.5V215H605.272V177.5C605.272 176.995 605.212 176.491 605.091 176H636.452C636.332 176.491 636.271 176.995 636.272 177.5ZM646.031 174L646.772 175.46C647.1 176.09 647.271 176.79 647.272 177.5V217H682.272V177.5C682.272 176.79 682.444 176.09 682.772 175.46L683.512 174H646.031ZM680.272 177.5V215H649.272V177.5C649.272 176.995 649.212 176.491 649.091 176H680.452C680.332 176.491 680.271 176.995 680.272 177.5ZM294.031 174L294.772 175.46C295.1 176.09 295.271 176.79 295.272 177.5V217H330.272V177.5C330.272 176.79 330.444 176.09 330.772 175.46L331.512 174H294.031ZM328.272 177.5V215H297.272V177.5C297.272 176.995 297.212 176.491 297.091 176H328.452C328.332 176.491 328.271 176.995 328.272 177.5ZM338.031 174L338.772 175.46C339.1 176.09 339.271 176.79 339.272 177.5V217H374.272V177.5C374.272 176.79 374.444 176.09 374.772 175.46L375.512 174H338.031ZM372.272 177.5V215H341.272V177.5C341.272 176.995 341.212 176.491 341.091 176H372.452C372.332 176.491 372.271 176.995 372.272 177.5ZM382.031 174L382.772 175.46C383.1 176.09 383.271 176.79 383.272 177.5V217H418.272V177.5C418.272 176.79 418.444 176.09 418.772 175.46L419.512 174H382.031ZM416.272 177.5V215H385.272V177.5C385.272 176.995 385.212 176.491 385.091 176H416.452C416.332 176.491 416.271 176.995 416.272 177.5ZM426.031 174L426.772 175.46C427.1 176.09 427.271 176.79 427.272 177.5V217H462.272V177.5C462.272 176.79 462.444 176.09 462.772 175.46L463.512 174H426.031ZM460.272 177.5V215H429.272V177.5C429.272 176.995 429.212 176.491 429.091 176H460.452C460.332 176.491 460.271 176.995 460.272 177.5ZM470.031 174L470.772 175.46C471.1 176.09 471.271 176.79 471.272 177.5V217H506.272V177.5C506.272 176.79 506.444 176.09 506.772 175.46L507.512 174H470.031ZM504.272 177.5V215H473.272V177.5C473.272 176.995 473.212 176.491 473.091 176H504.452C504.332 176.491 504.271 176.995 504.272 177.5ZM514.031 174L514.772 175.46C515.1 176.09 515.271 176.79 515.272 177.5V217H550.272V177.5C550.272 176.79 550.444 176.09 550.772 175.46L551.512 174H514.031ZM548.272 177.5V215H517.272V177.5C517.272 176.995 517.212 176.491 517.091 176H548.452C548.332 176.491 548.271 176.995 548.272 177.5ZM558.031 174L558.772 175.46C559.1 176.09 559.271 176.79 559.272 177.5V217H594.272V177.5C594.272 176.79 594.444 176.09 594.772 175.46L595.512 174H558.031ZM592.272 177.5V215H561.272V177.5C561.272 176.995 561.212 176.491 561.091 176H592.452C592.332 176.491 592.271 176.995 592.272 177.5ZM602.031 174L602.772 175.46C603.1 176.09 603.271 176.79 603.272 177.5V217H638.272V177.5C638.272 176.79 638.444 176.09 638.772 175.46L639.512 174H602.031ZM636.272 177.5V215H605.272V177.5C605.272 176.995 605.212 176.491 605.091 176H636.452C636.332 176.491 636.271 176.995 636.272 177.5ZM646.031 174L646.772 175.46C647.1 176.09 647.271 176.79 647.272 177.5V217H682.272V177.5C682.272 176.79 682.444 176.09 682.772 175.46L683.512 174H646.031ZM680.272 177.5V215H649.272V177.5C649.272 176.995 649.212 176.491 649.091 176H680.452C680.332 176.491 680.271 176.995 680.272 177.5ZM294.031 174L294.772 175.46C295.1 176.09 295.271 176.79 295.272 177.5V217H330.272V177.5C330.272 176.79 330.444 176.09 330.772 175.46L331.512 174H294.031ZM328.272 177.5V215H297.272V177.5C297.272 176.995 297.212 176.491 297.091 176H328.452C328.332 176.491 328.271 176.995 328.272 177.5ZM338.031 174L338.772 175.46C339.1 176.09 339.271 176.79 339.272 177.5V217H374.272V177.5C374.272 176.79 374.444 176.09 374.772 175.46L375.512 174H338.031ZM372.272 177.5V215H341.272V177.5C341.272 176.995 341.212 176.491 341.091 176H372.452C372.332 176.491 372.271 176.995 372.272 177.5ZM382.031 174L382.772 175.46C383.1 176.09 383.271 176.79 383.272 177.5V217H418.272V177.5C418.272 176.79 418.444 176.09 418.772 175.46L419.512 174H382.031ZM416.272 177.5V215H385.272V177.5C385.272 176.995 385.212 176.491 385.091 176H416.452C416.332 176.491 416.271 176.995 416.272 177.5ZM426.031 174L426.772 175.46C427.1 176.09 427.271 176.79 427.272 177.5V217H462.272V177.5C462.272 176.79 462.444 176.09 462.772 175.46L463.512 174H426.031ZM460.272 177.5V215H429.272V177.5C429.272 176.995 429.212 176.491 429.091 176H460.452C460.332 176.491 460.271 176.995 460.272 177.5ZM470.031 174L470.772 175.46C471.1 176.09 471.271 176.79 471.272 177.5V217H506.272V177.5C506.272 176.79 506.444 176.09 506.772 175.46L507.512 174H470.031ZM504.272 177.5V215H473.272V177.5C473.272 176.995 473.212 176.491 473.091 176H504.452C504.332 176.491 504.271 176.995 504.272 177.5ZM514.031 174L514.772 175.46C515.1 176.09 515.271 176.79 515.272 177.5V217H550.272V177.5C550.272 176.79 550.444 176.09 550.772 175.46L551.512 174H514.031ZM548.272 177.5V215H517.272V177.5C517.272 176.995 517.212 176.491 517.091 176H548.452C548.332 176.491 548.271 176.995 548.272 177.5ZM558.031 174L558.772 175.46C559.1 176.09 559.271 176.79 559.272 177.5V217H594.272V177.5C594.272 176.79 594.444 176.09 594.772 175.46L595.512 174H558.031ZM592.272 177.5V215H561.272V177.5C561.272 176.995 561.212 176.491 561.091 176H592.452C592.332 176.491 592.271 176.995 592.272 177.5ZM602.031 174L602.772 175.46C603.1 176.09 603.271 176.79 603.272 177.5V217H638.272V177.5C638.272 176.79 638.444 176.09 638.772 175.46L639.512 174H602.031ZM636.272 177.5V215H605.272V177.5C605.272 176.995 605.212 176.491 605.091 176H636.452C636.332 176.491 636.271 176.995 636.272 177.5ZM646.031 174L646.772 175.46C647.1 176.09 647.271 176.79 647.272 177.5V217H682.272V177.5C682.272 176.79 682.444 176.09 682.772 175.46L683.512 174H646.031ZM680.272 177.5V215H649.272V177.5C649.272 176.995 649.212 176.491 649.091 176H680.452C680.332 176.491 680.271 176.995 680.272 177.5Z" fill="#3F3D56"/>
<path d="M412.924 349H339.181C337.627 348.998 336.138 348.38 335.04 347.282C333.942 346.184 333.324 344.695 333.322 343.142V303.858C333.324 302.305 333.942 300.816 335.04 299.718C336.138 298.62 337.627 298.002 339.181 298H412.924C414.477 298.002 415.966 298.619 417.064 299.718C418.162 300.816 418.78 302.305 418.782 303.858V343.142C418.78 344.695 418.162 346.184 417.064 347.282C415.966 348.381 414.477 348.998 412.924 349Z" fill="black"/>
<path d="M525.143 349H451.4C449.847 348.998 448.358 348.38 447.26 347.282C446.161 346.184 445.544 344.695 445.542 343.142V303.858C445.544 302.305 446.161 300.816 447.26 299.718C448.358 298.62 449.847 298.002 451.4 298H525.143C526.696 298.002 528.185 298.619 529.284 299.718C530.382 300.816 531 302.305 531.001 303.858V343.142C531 344.695 530.382 346.184 529.284 347.282C528.185 348.38 526.696 348.998 525.143 349Z" fill="black"/>
<path d="M637.363 349H563.62C562.066 348.998 560.577 348.38 559.479 347.282C558.381 346.184 557.763 344.695 557.761 343.142V303.858C557.763 302.305 558.381 300.816 559.479 299.718C560.577 298.62 562.066 298.002 563.62 298H637.363C638.916 298.002 640.405 298.619 641.503 299.718C642.601 300.816 643.219 302.305 643.221 303.858V343.142C643.219 344.695 642.601 346.184 641.503 347.282C640.405 348.381 638.916 348.998 637.363 349Z" fill="black"/>
<path d="M412.924 480H339.181C337.627 479.998 336.138 479.381 335.04 478.282C333.942 477.184 333.324 475.695 333.322 474.142V434.858C333.324 433.305 333.942 431.816 335.04 430.718C336.138 429.62 337.627 429.002 339.181 429H412.924C414.477 429.002 415.966 429.619 417.064 430.718C418.162 431.816 418.78 433.305 418.782 434.858V474.142C418.78 475.695 418.162 477.184 417.064 478.282C415.966 479.381 414.477 479.998 412.924 480Z" fill="black"/>
<path d="M525.143 480H451.4C449.847 479.998 448.358 479.381 447.26 478.282C446.161 477.184 445.544 475.695 445.542 474.142V434.858C445.544 433.305 446.161 431.816 447.26 430.718C448.358 429.62 449.847 429.002 451.4 429H525.143C526.696 429.002 528.185 429.619 529.284 430.718C530.382 431.816 531 433.305 531.001 434.858V474.142C531 475.695 530.382 477.184 529.284 478.282C528.185 479.381 526.696 479.998 525.143 480Z" fill="black"/>
<path d="M637.363 480H563.62C562.066 479.998 560.577 479.381 559.479 478.282C558.381 477.184 557.763 475.695 557.761 474.142V434.858C557.763 433.305 558.381 431.816 559.479 430.718C560.577 429.62 562.066 429.002 563.62 429H637.363C638.916 429.002 640.405 429.619 641.503 430.718C642.601 431.816 643.219 433.305 643.221 434.858V474.142C643.219 475.695 642.601 477.184 641.503 478.282C640.405 479.381 638.916 479.998 637.363 480Z" fill="black"/>
<path d="M412.924 611H339.181C337.627 610.998 336.138 610.381 335.04 609.282C333.942 608.184 333.324 606.695 333.322 605.142V565.858C333.324 564.305 333.942 562.816 335.04 561.718C336.138 560.619 337.627 560.002 339.181 560H412.924C414.477 560.002 415.966 560.619 417.064 561.718C418.162 562.816 418.78 564.305 418.782 565.858V605.142C418.78 606.695 418.162 608.184 417.064 609.282C415.966 610.381 414.477 610.998 412.924 611Z" fill="black"/>
<path d="M525.143 611H451.4C449.847 610.998 448.358 610.381 447.26 609.282C446.161 608.184 445.544 606.695 445.542 605.142V565.858C445.544 564.305 446.161 562.816 447.26 561.718C448.358 560.619 449.847 560.002 451.4 560H525.143C526.696 560.002 528.185 560.619 529.284 561.718C530.382 562.816 531 564.305 531.001 565.858V605.142C531 606.695 530.382 608.184 529.284 609.282C528.185 610.381 526.696 610.998 525.143 611Z" fill="black"/>
<path d="M637.363 611H563.62C562.066 610.998 560.577 610.381 559.479 609.282C558.381 608.184 557.763 606.695 557.761 605.142V565.858C557.763 564.305 558.381 562.816 559.479 561.718C560.577 560.619 562.066 560.002 563.62 560H637.363C638.916 560.002 640.405 560.619 641.503 561.718C642.601 562.816 643.219 564.305 643.221 565.858V605.142C643.219 606.695 642.601 608.184 641.503 609.282C640.405 610.381 638.916 610.998 637.363 611Z" fill="black"/>
<path d="M400.985 354.041H315.558C313.494 354.038 311.514 353.217 310.055 351.757C308.595 350.297 307.774 348.318 307.772 346.254V300.746C307.774 298.682 308.595 296.703 310.055 295.243C311.514 293.783 313.494 292.962 315.558 292.959H400.985C403.05 292.962 405.029 293.783 406.488 295.243C407.948 296.703 408.769 298.682 408.772 300.746V346.254C408.769 348.318 407.948 350.297 406.488 351.757C405.029 353.217 403.05 354.038 400.985 354.041ZM315.558 294.959C314.024 294.961 312.553 295.571 311.468 296.656C310.383 297.741 309.773 299.212 309.772 300.746V346.254C309.773 347.788 310.383 349.259 311.468 350.344C312.553 351.429 314.024 352.039 315.558 352.041H400.985C402.519 352.039 403.99 351.429 405.075 350.344C406.16 349.259 406.77 347.788 406.772 346.254V300.746C406.77 299.212 406.16 297.741 405.075 296.656C403.99 295.571 402.519 294.961 400.985 294.959H315.558Z" fill="#3F3D56"/>
<path d="M530.985 354.041H445.558C443.494 354.038 441.514 353.217 440.055 351.757C438.595 350.297 437.774 348.318 437.772 346.254V300.746C437.774 298.682 438.595 296.703 440.055 295.243C441.514 293.783 443.494 292.962 445.558 292.959H530.985C533.05 292.962 535.029 293.783 536.489 295.243C537.948 296.703 538.769 298.682 538.772 300.746V346.254C538.769 348.318 537.948 350.297 536.489 351.757C535.029 353.217 533.05 354.038 530.985 354.041ZM445.558 294.959C444.024 294.961 442.553 295.571 441.468 296.656C440.383 297.741 439.773 299.212 439.772 300.746V346.254C439.773 347.788 440.383 349.259 441.468 350.344C442.553 351.429 444.024 352.039 445.558 352.041H530.985C532.519 352.039 533.99 351.429 535.075 350.344C536.16 349.259 536.77 347.788 536.772 346.254V300.746C536.77 299.212 536.16 297.741 535.075 296.656C533.99 295.571 532.519 294.961 530.985 294.959H445.558Z" fill="#3F3D56"/>
<path d="M660.985 354.041H575.558C573.494 354.038 571.514 353.217 570.055 351.757C568.595 350.297 567.774 348.318 567.772 346.254V300.746C567.774 298.682 568.595 296.703 570.055 295.243C571.514 293.783 573.494 292.962 575.558 292.959H660.985C663.05 292.962 665.029 293.783 666.489 295.243C667.948 296.703 668.769 298.682 668.772 300.746V346.254C668.769 348.318 667.948 350.297 666.489 351.757C665.029 353.217 663.05 354.038 660.985 354.041ZM575.558 294.959C574.024 294.961 572.553 295.571 571.468 296.656C570.383 297.741 569.773 299.212 569.772 300.746V346.254C569.773 347.788 570.383 349.259 571.468 350.344C572.553 351.429 574.024 352.039 575.558 352.041H660.985C662.519 352.039 663.99 351.429 665.075 350.344C666.16 349.259 666.77 347.788 666.772 346.254V300.746C666.77 299.212 666.16 297.741 665.075 296.656C663.99 295.571 662.519 294.961 660.985 294.959H575.558Z" fill="#3F3D56"/>
<path d="M400.985 485.041H315.558C313.494 485.038 311.514 484.217 310.055 482.757C308.595 481.297 307.774 479.318 307.772 477.254V431.746C307.774 429.682 308.595 427.703 310.055 426.243C311.514 424.783 313.494 423.962 315.558 423.959H400.985C403.05 423.962 405.029 424.783 406.488 426.243C407.948 427.703 408.769 429.682 408.772 431.746V477.254C408.769 479.318 407.948 481.297 406.488 482.757C405.029 484.217 403.05 485.038 400.985 485.041ZM315.558 425.959C314.024 425.961 312.553 426.571 311.468 427.656C310.383 428.741 309.773 430.212 309.772 431.746V477.254C309.773 478.788 310.383 480.259 311.468 481.344C312.553 482.429 314.024 483.039 315.558 483.041H400.985C402.519 483.039 403.99 482.429 405.075 481.344C406.16 480.259 406.77 478.788 406.772 477.254V431.746C406.77 430.212 406.16 428.741 405.075 427.656C403.99 426.571 402.519 425.961 400.985 425.959H315.558Z" fill="#3F3D56"/>
<path d="M530.985 485.041H445.558C443.494 485.038 441.514 484.217 440.055 482.757C438.595 481.297 437.774 479.318 437.772 477.254V431.746C437.774 429.682 438.595 427.703 440.055 426.243C441.514 424.783 443.494 423.962 445.558 423.959H530.985C533.05 423.962 535.029 424.783 536.489 426.243C537.948 427.703 538.769 429.682 538.772 431.746V477.254C538.769 479.318 537.948 481.297 536.489 482.757C535.029 484.217 533.05 485.038 530.985 485.041ZM445.558 425.959C444.024 425.961 442.553 426.571 441.468 427.656C440.383 428.741 439.773 430.212 439.772 431.746V477.254C439.773 478.788 440.383 480.259 441.468 481.344C442.553 482.429 444.024 483.039 445.558 483.041H530.985C532.519 483.039 533.99 482.429 535.075 481.344C536.16 480.259 536.77 478.788 536.772 477.254V431.746C536.77 430.212 536.16 428.741 535.075 427.656C533.99 426.571 532.519 425.961 530.985 425.959H445.558Z" fill="#3F3D56"/>
<path d="M660.985 485.041H575.558C573.494 485.038 571.514 484.217 570.055 482.757C568.595 481.297 567.774 479.318 567.772 477.254V431.746C567.774 429.682 568.595 427.703 570.055 426.243C571.514 424.783 573.494 423.962 575.558 423.959H660.985C663.05 423.962 665.029 424.783 666.489 426.243C667.948 427.703 668.769 429.682 668.772 431.746V477.254C668.769 479.318 667.948 481.297 666.489 482.757C665.029 484.217 663.05 485.038 660.985 485.041ZM575.558 425.959C574.024 425.961 572.553 426.571 571.468 427.656C570.383 428.741 569.773 430.212 569.772 431.746V477.254C569.773 478.788 570.383 480.259 571.468 481.344C572.553 482.429 574.024 483.039 575.558 483.041H660.985C662.519 483.039 663.99 482.429 665.075 481.344C666.16 480.259 666.77 478.788 666.772 477.254V431.746C666.77 430.212 666.16 428.741 665.075 427.656C663.99 426.571 662.519 425.961 660.985 425.959H575.558Z" fill="#3F3D56"/>
<path d="M400.985 616.041H315.558C313.494 616.038 311.514 615.217 310.055 613.757C308.595 612.297 307.774 610.318 307.772 608.254V562.746C307.774 560.682 308.595 558.703 310.055 557.243C311.514 555.783 313.494 554.962 315.558 554.959H400.985C403.05 554.962 405.029 555.783 406.488 557.243C407.948 558.703 408.769 560.682 408.772 562.746V608.254C408.769 610.318 407.948 612.297 406.488 613.757C405.029 615.217 403.05 616.038 400.985 616.041ZM315.558 556.959C314.024 556.961 312.553 557.571 311.468 558.656C310.383 559.741 309.773 561.212 309.772 562.746V608.254C309.773 609.788 310.383 611.259 311.468 612.344C312.553 613.429 314.024 614.039 315.558 614.041H400.985C402.519 614.039 403.99 613.429 405.075 612.344C406.16 611.259 406.77 609.788 406.772 608.254V562.746C406.77 561.212 406.16 559.741 405.075 558.656C403.99 557.571 402.519 556.961 400.985 556.959H315.558Z" fill="#3F3D56"/>
<path d="M530.985 616.041H445.558C443.494 616.038 441.514 615.217 440.055 613.757C438.595 612.297 437.774 610.318 437.772 608.254V562.746C437.774 560.682 438.595 558.703 440.055 557.243C441.514 555.783 443.494 554.962 445.558 554.959H530.985C533.05 554.962 535.029 555.783 536.489 557.243C537.948 558.703 538.769 560.682 538.772 562.746V608.254C538.769 610.318 537.948 612.297 536.489 613.757C535.029 615.217 533.05 616.038 530.985 616.041ZM445.558 556.959C444.024 556.961 442.553 557.571 441.468 558.656C440.383 559.741 439.773 561.212 439.772 562.746V608.254C439.773 609.788 440.383 611.259 441.468 612.344C442.553 613.429 444.024 614.039 445.558 614.041H530.985C532.519 614.039 533.99 613.429 535.075 612.344C536.16 611.259 536.77 609.788 536.772 608.254V562.746C536.77 561.212 536.16 559.741 535.075 558.656C533.99 557.571 532.519 556.961 530.985 556.959H445.558Z" fill="#3F3D56"/>
<path d="M660.985 616.041H575.558C573.494 616.038 571.514 615.217 570.055 613.757C568.595 612.297 567.774 610.318 567.772 608.254V562.746C567.774 560.682 568.595 558.703 570.055 557.243C571.514 555.783 573.494 554.962 575.558 554.959H660.985C663.05 554.962 665.029 555.783 666.489 557.243C667.948 558.703 668.769 560.682 668.772 562.746V608.254C668.769 610.318 667.948 612.297 666.489 613.757C665.029 615.217 663.05 616.038 660.985 616.041ZM575.558 556.959C574.024 556.961 572.553 557.571 571.468 558.656C570.383 559.741 569.773 561.212 569.772 562.746V608.254C569.773 609.788 570.383 611.259 571.468 612.344C572.553 613.429 574.024 614.039 575.558 614.041H660.985C662.519 614.039 663.99 613.429 665.075 612.344C666.16 611.259 666.77 609.788 666.772 608.254V562.746C666.77 561.212 666.16 559.741 665.075 558.656C663.99 557.571 662.519 556.961 660.985 556.959H575.558Z" fill="#3F3D56"/>
<path d="M1009 770.5H1C0.734784 770.5 0.480429 770.395 0.292892 770.207C0.105356 770.02 0 769.765 0 769.5C0 769.235 0.105356 768.98 0.292892 768.793C0.480429 768.605 0.734784 768.5 1 768.5H1009C1009.27 768.5 1009.52 768.605 1009.71 768.793C1009.89 768.98 1010 769.235 1010 769.5C1010 769.765 1009.89 770.02 1009.71 770.207C1009.52 770.395 1009.27 770.5 1009 770.5Z" fill="#3F3D56"/>
<path d="M538.772 673.71C538.799 671.428 537.919 669.229 536.325 667.595C534.731 665.962 532.554 665.028 530.272 665H488.272V768.5H538.772V673.71Z" fill="#3F3D56"/>
<path d="M489.272 767.5H436.772V674C436.775 671.481 437.776 669.067 439.557 667.286C441.338 665.505 443.753 664.503 446.272 664.5H489.272V767.5ZM438.772 765.5H487.272V666.5H446.272C444.283 666.502 442.377 667.293 440.971 668.699C439.565 670.105 438.774 672.012 438.772 674V765.5Z" fill="#3F3D56"/>
<path d="M443.272 723C444.928 723 446.272 721.657 446.272 720C446.272 718.343 444.928 717 443.272 717C441.615 717 440.272 718.343 440.272 720C440.272 721.657 441.615 723 443.272 723Z" fill="#3F3D56"/>
<path d="M854 821C889.346 821 918 792.346 918 757C918 721.654 889.346 693 854 693C818.654 693 790 721.654 790 757C790 792.346 818.654 821 854 821Z" fill="black"/>
<path d="M264 821C299.346 821 328 792.346 328 757C328 721.654 299.346 693 264 693C228.654 693 200 721.654 200 757C200 792.346 228.654 821 264 821Z" fill="black"/>
<path d="M147 849C182.346 849 211 820.346 211 785C211 749.654 182.346 721 147 721C111.654 721 83 749.654 83 785C83 820.346 111.654 849 147 849Z" fill="black"/>
<path d="M760 817C795.346 817 824 788.346 824 753C824 717.654 795.346 689 760 689C724.654 689 696 717.654 696 753C696 788.346 724.654 817 760 817Z" fill="black"/>
</g>
<defs>
<clipPath id="clip0">
<rect width="1010" height="770.563" fill="white"/>
</clipPath>
</defs>
</svg>
