<svg width="713" height="848" viewBox="0 0 713 848" fill="none" xmlns="http://www.w3.org/2000/svg">
<g clip-path="url(#clip0)">
<path d="M238.58 576.581C240.066 580.798 241.782 584.931 243.72 588.961V588.971C245.29 592.251 246.997 595.447 248.84 598.561H463.86V598.991C465.81 595.741 467.603 592.394 469.24 588.951C471.182 584.926 472.898 580.796 474.38 576.581H238.58ZM244 588.831V586.831H468.99V588.831H244ZM260.76 615.371H452.2C456.127 610.702 459.706 605.752 462.91 600.561H250.05C253.254 605.752 256.834 610.702 260.76 615.371Z" fill="#3F3D56"/>
<path d="M477.74 565.361C476.97 568.491 476.07 571.561 475.06 574.581H237.9C236.89 571.561 235.99 568.491 235.22 565.361H477.74Z" fill="#3F3D56"/>
<path d="M477.89 564.771V563.361H235.07V564.771C234.22 561.291 233.517 557.747 232.96 554.141H480C479.45 557.741 478.747 561.284 477.89 564.771Z" fill="#3F3D56"/>
<path d="M232.52 540.921V542.921H481.21C481.02 546.031 480.72 549.101 480.29 552.141H232.67C232.25 549.121 231.94 546.061 231.76 542.961C231.58 540.341 231.5 537.701 231.5 535.031C231.5 533.231 231.54 531.441 231.61 529.661V529.641C231.78 525.851 232.107 522.111 232.59 518.421V518.411C233.01 515.321 233.533 512.267 234.16 509.251H478.4V507.431C479.22 511.051 479.873 514.731 480.36 518.471H233.03V520.471H480.61C480.94 523.261 481.173 526.074 481.31 528.911L481.34 529.691H232.78V531.691H481.41C481.45 532.801 481.46 533.911 481.46 535.031C481.46 537.011 481.41 538.971 481.32 540.921H232.52Z" fill="#3F3D56"/>
<path d="M478.36 507.251H234.6C235.31 504.131 236.133 501.057 237.07 498.031H475.85V497.921C476.81 500.981 477.64 504.091 478.36 507.251Z" fill="#3F3D56"/>
<path d="M475.25 496.031H237.71C238.95 492.231 240.367 488.517 241.96 484.891V486.801H471V484.901C472.59 488.521 474.007 492.231 475.25 496.031Z" fill="#3F3D56"/>
<path d="M470.95 484.801H242C243.38 481.661 244.89 478.587 246.53 475.581H466.16V475.081C467.9 478.241 469.497 481.481 470.95 484.801Z" fill="#3F3D56"/>
<path d="M465.32 473.581H247.63C258.52 454.3 274.336 438.258 293.461 427.095C312.585 415.933 334.331 410.051 356.475 410.051C378.619 410.051 400.365 415.933 419.489 427.095C438.614 438.258 454.43 454.3 465.32 473.581Z" fill="#3F3D56"/>
<path opacity="0.5" d="M235.07 564.771C235.109 564.97 235.159 565.167 235.22 565.361H235.07V564.771Z" fill="black"/>
<path opacity="0.5" d="M477.89 564.771V565.361H477.74C477.801 565.167 477.851 564.97 477.89 564.771Z" fill="black"/>
<path opacity="0.5" d="M481.46 540.921V542.921H481.21C481.23 542.671 481.25 542.421 481.26 542.171C481.28 541.751 481.3 541.341 481.32 540.921H481.46Z" fill="black"/>
<path opacity="0.5" d="M481.46 529.691V531.691H481.41C481.4 531.021 481.37 530.361 481.34 529.691H481.46Z" fill="black"/>
<path opacity="0.5" d="M478.4 507.251V507.431C478.39 507.371 478.37 507.311 478.36 507.251H478.4Z" fill="black"/>
<path opacity="0.5" d="M241.96 484.801H242C241.991 484.832 241.977 484.863 241.96 484.891V484.801Z" fill="black"/>
<path opacity="0.5" d="M471 484.801V484.901C470.985 484.866 470.969 484.833 470.95 484.801H471Z" fill="black"/>
<path opacity="0.5" d="M458.249 462.358H254.71V464.358H458.249V462.358Z" fill="black"/>
<path opacity="0.5" d="M450.342 451.135H263.127V453.135H450.342V451.135Z" fill="black"/>
<path opacity="0.5" d="M438.354 439.912H274.605V441.912H438.354V439.912Z" fill="black"/>
<path opacity="0.5" d="M423.304 428.684L287.101 428.95L287.105 430.95L423.308 430.684L423.304 428.684Z" fill="black"/>
<path d="M338.358 469.361H278.674V601.609H338.358V469.361Z" fill="white"/>
<path d="M305.978 481.813H308.504C312.228 481.813 315.799 483.292 318.432 485.925C321.065 488.558 322.545 492.129 322.545 495.853V515.733H291.937V495.853C291.937 492.129 293.416 488.558 296.05 485.925C298.683 483.292 302.254 481.813 305.978 481.813Z" fill="#3F3D56"/>
<path d="M415.144 468.204C419.202 468.204 423.095 469.816 425.965 472.686C428.835 475.556 430.447 479.449 430.447 483.507V508.503H399.84V483.507C399.84 479.449 401.452 475.556 404.322 472.686C407.192 469.816 411.085 468.204 415.144 468.204Z" fill="white"/>
<path d="M473.298 519.216C473.298 520.409 473.232 521.601 473.099 522.787H356.48V516.155H473.15C473.247 517.17 473.296 518.191 473.298 519.216Z" fill="white"/>
<path d="M373.215 496.829L374.349 495.077C374.013 494.149 373.624 493.24 373.186 492.355L372.453 492.947L373.033 492.05C372.48 490.961 372.045 490.275 372.045 490.275C370.648 492.557 369.624 495.047 369.011 497.651L370.466 499.899L368.856 498.599C368.798 499.04 368.769 499.486 368.767 499.931C368.767 504.424 370.235 508.066 372.045 508.066C373.855 508.066 375.322 504.424 375.322 499.931C375.288 498.502 375.035 497.086 374.572 495.733L373.215 496.829Z" fill="black"/>
<path d="M381.239 500.724L383.28 500.287C383.699 499.393 384.067 498.475 384.383 497.539L383.446 497.44L384.49 497.216C384.869 496.055 385.047 495.262 385.047 495.262C382.445 495.888 379.961 496.925 377.686 498.333L377.125 500.951L376.906 498.893C376.553 499.165 376.217 499.458 375.901 499.772C372.724 502.949 371.187 506.562 372.466 507.842C373.746 509.122 377.359 507.584 380.536 504.407C381.523 503.373 382.345 502.193 382.974 500.909L381.239 500.724Z" fill="black"/>
<path d="M381.985 518.109C377.253 518.411 372.097 518.091 366.613 518.109V505.551C371.712 506.265 376.886 506.265 381.985 505.551V518.109Z" fill="white"/>
<path d="M450.244 496.829L451.377 495.077C451.041 494.149 450.653 493.24 450.214 492.355L449.481 492.947L450.061 492.05C449.508 490.961 449.073 490.275 449.073 490.275C447.676 492.557 446.653 495.047 446.04 497.651L447.495 499.899L445.884 498.599C445.827 499.04 445.797 499.486 445.796 499.931C445.796 504.424 447.263 508.066 449.073 508.066C450.883 508.066 452.35 504.424 452.35 499.931C452.316 498.502 452.064 497.086 451.601 495.733L450.244 496.829Z" fill="black"/>
<path d="M458.268 500.724L460.308 500.287C460.727 499.393 461.095 498.475 461.411 497.539L460.474 497.44L461.519 497.216C461.898 496.055 462.075 495.262 462.075 495.262C459.474 495.888 456.989 496.925 454.714 498.333L454.153 500.951L453.934 498.893C453.581 499.165 453.246 499.458 452.929 499.772C449.753 502.949 448.215 506.562 449.495 507.842C450.775 509.122 454.387 507.584 457.564 504.407C458.551 503.373 459.373 502.193 460.002 500.909L458.268 500.724Z" fill="black"/>
<path d="M459.013 518.109C454.281 518.411 449.126 518.091 443.641 518.109V505.551C448.74 506.265 453.914 506.265 459.013 505.551V518.109Z" fill="white"/>
<path d="M285.816 544.502C289.197 544.502 291.937 542.195 291.937 539.349C291.937 536.503 289.197 534.197 285.816 534.197C282.435 534.197 279.694 536.503 279.694 539.349C279.694 542.195 282.435 544.502 285.816 544.502Z" fill="#3F3D56"/>
<path d="M646.69 694.161C582.68 785.581 476.57 845.361 356.5 845.361C234.99 845.361 127.78 784.141 64.03 690.861C118.93 586.511 230.4 612.361 356.5 612.361C483.92 612.361 592.37 588.021 646.69 694.161Z" fill="black"/>
<path d="M356.5 637.361C477.707 637.361 581.745 615.346 638.358 704.557C641.207 700.814 643.984 697.015 646.69 693.161C592.37 587.021 483.92 611.361 356.5 611.361C230.4 611.361 118.93 585.511 64.03 689.861C66.744 693.832 69.5381 697.743 72.4122 701.593C129.776 613.965 236.513 637.361 356.5 637.361Z" fill="#3F3D56"/>
<path d="M356.5 847.86C269.592 847.793 185.71 815.94 120.661 758.306C55.613 700.671 13.8912 621.235 3.35882 534.968C-7.17356 448.7 14.2109 361.559 63.482 289.968C112.753 218.376 186.508 167.278 270.847 146.303C355.186 125.328 444.284 135.926 521.351 176.098C598.417 216.27 658.129 283.243 689.233 364.394C720.337 445.546 720.685 535.271 690.211 616.661C659.738 698.052 600.547 765.486 523.795 806.254C472.271 833.595 414.828 847.881 356.5 847.86ZM356.5 137.86C302.816 137.885 249.843 150.136 201.6 173.684C153.356 197.232 111.11 231.458 78.0653 273.766C45.0208 316.075 22.0464 365.354 10.885 417.864C-0.276292 470.375 0.668681 524.738 13.6483 576.829C26.6278 628.92 51.3011 677.37 85.7961 718.505C120.291 759.639 163.702 792.377 212.734 814.234C261.767 836.091 315.134 846.493 368.786 844.652C422.438 842.81 474.966 828.773 522.385 803.606C571.72 777.252 614.162 739.661 646.281 693.87C680.509 644.829 701.756 587.917 708.04 528.444C714.324 468.971 705.44 408.876 682.218 353.765C655.196 289.719 609.876 235.071 551.936 196.665C493.997 158.26 426.013 137.804 356.5 137.86Z" fill="#3F3D56"/>
<path d="M356.5 845.86C309.943 845.871 263.841 836.708 220.826 818.897C177.811 801.085 138.727 774.973 105.807 742.053C72.8864 709.133 46.7745 670.048 28.963 627.034C11.1515 584.019 1.98936 537.916 2.00001 491.36C2.00001 295.888 161.028 136.86 356.5 136.86C551.972 136.86 711 295.888 711 491.36C711.159 564.028 688.839 634.966 647.099 694.451C614.381 741.172 570.891 779.324 520.308 805.679C469.725 832.034 413.537 845.816 356.5 845.86ZM356.5 139.86C162.682 139.86 5.00001 297.542 5.00001 491.36C5.00565 566.141 28.859 638.972 73.0933 699.267C117.328 759.563 179.638 804.181 250.967 826.636C322.297 849.092 398.93 848.216 469.727 824.134C540.525 800.053 601.798 754.021 644.642 692.73C686.027 633.749 708.158 563.412 708 491.36C708 297.542 550.317 139.86 356.5 139.86Z" fill="#3F3D56"/>
<path d="M132 299.361C184.743 299.361 227.5 256.604 227.5 203.861C227.5 151.117 184.743 108.361 132 108.361C79.2568 108.361 36.5 151.117 36.5 203.861C36.5 256.604 79.2568 299.361 132 299.361Z" fill="black"/>
<path d="M535.391 327C625.689 327 698.891 253.799 698.891 163.5C698.891 73.2014 625.689 0 535.391 0C445.092 0 371.891 73.2014 371.891 163.5C371.891 253.799 445.092 327 535.391 327Z" fill="black"/>
<path opacity="0.2" d="M657.012 54.2948C672.263 89.9694 674.332 129.904 662.849 166.964C651.366 204.023 627.08 235.792 594.33 256.594C561.58 277.396 522.501 285.874 484.075 280.515C445.649 275.155 410.381 256.307 384.573 227.338C393.889 249.134 407.833 268.644 425.438 284.516C443.043 300.387 463.888 312.242 486.529 319.258C509.17 326.274 533.066 328.283 556.561 325.147C580.056 322.011 602.588 313.805 622.596 301.096C642.605 288.387 659.611 271.481 672.437 251.547C685.262 231.614 693.601 209.13 696.875 185.654C700.148 162.178 698.279 138.271 691.396 115.589C684.513 92.9067 672.781 71.9924 657.012 54.2948Z" fill="black"/>
<path d="M535.84 163.5H536.289L544.374 627.049H527.306L535.84 163.5Z" fill="#3F3D56"/>
<path d="M133.534 181H133.983L142.068 644.549H125L133.534 181Z" fill="#3F3D56"/>
<path d="M564.61 415.993L560.844 408.839L533.817 423.068L537.583 430.222L564.61 415.993Z" fill="#3F3D56"/>
<path d="M163.213 413.338L160.844 408.839L132.047 423.999L134.416 428.499L163.213 413.338Z" fill="#3F3D56"/>
<path d="M108.543 421L106 425.404L134.184 441.676L136.726 437.272L108.543 421Z" fill="#3F3D56"/>
<path d="M509.044 606.973C509.044 606.973 509.734 592.504 523.891 594.185L509.044 606.973Z" fill="#3F3D56"/>
<path d="M505.044 593.204C508.957 593.204 512.129 590.031 512.129 586.118C512.129 582.205 508.957 579.033 505.044 579.033C501.131 579.033 497.958 582.205 497.958 586.118C497.958 590.031 501.131 593.204 505.044 593.204Z" fill="black"/>
<path d="M505.891 598.049H503.891V612.049H505.891V598.049Z" fill="#3F3D56"/>
<path d="M602.044 633.973C602.044 633.973 602.734 619.504 616.891 621.185L602.044 633.973Z" fill="#3F3D56"/>
<path d="M598.044 620.204C601.957 620.204 605.129 617.031 605.129 613.118C605.129 609.205 601.957 606.033 598.044 606.033C594.131 606.033 590.958 609.205 590.958 613.118C590.958 617.031 594.131 620.204 598.044 620.204Z" fill="black"/>
<path d="M598.891 625.049H596.891V639.049H598.891V625.049Z" fill="#3F3D56"/>
<path d="M105.044 639.973C105.044 639.973 105.734 625.504 119.891 627.185L105.044 639.973Z" fill="#3F3D56"/>
<path d="M101.044 626.204C104.957 626.204 108.129 623.031 108.129 619.118C108.129 615.205 104.957 612.033 101.044 612.033C97.1306 612.033 93.9584 615.205 93.9584 619.118C93.9584 623.031 97.1306 626.204 101.044 626.204Z" fill="black"/>
<path d="M101.891 631.049H99.8908V645.049H101.891V631.049Z" fill="#3F3D56"/>
<path d="M565.044 616.973C565.044 616.973 565.734 602.504 579.891 604.185L565.044 616.973Z" fill="#3F3D56"/>
<path d="M561.044 603.204C564.957 603.204 568.129 600.031 568.129 596.118C568.129 592.205 564.957 589.033 561.044 589.033C557.131 589.033 553.958 592.205 553.958 596.118C553.958 600.031 557.131 603.204 561.044 603.204Z" fill="black"/>
<path d="M561.891 608.049H559.891V622.049H561.891V608.049Z" fill="#3F3D56"/>
<path d="M248.756 365.466L257.962 358.103C250.81 357.314 247.872 361.214 246.669 364.301C241.082 361.982 235 365.022 235 365.022L253.419 371.709C252.49 369.227 250.872 367.061 248.756 365.466Z" fill="#3F3D56"/>
<path d="M321.685 284.515L330.891 277.153C323.739 276.364 320.801 280.264 319.598 283.351C314.011 281.031 307.929 284.071 307.929 284.071L326.348 290.758C325.419 288.276 323.801 286.111 321.685 284.515Z" fill="#3F3D56"/>
<path d="M170.685 348.515L179.891 341.153C172.739 340.364 169.801 344.264 168.598 347.351C163.011 345.031 156.929 348.071 156.929 348.071L175.348 354.758C174.419 352.276 172.801 350.111 170.685 348.515Z" fill="#3F3D56"/>
<path opacity="0.2" d="M480.5 536.361C480.522 552.449 477.209 568.367 470.77 583.111L263.4 479.191L247.63 471.361L269 470.191L454.21 460.071C471.84 480.551 480.5 507.211 480.5 536.361Z" fill="black"/>
<path d="M505.5 471.361H207.5V447.361L355.5 385.361L505.5 447.361V471.361Z" fill="#3F3D56"/>
</g>
<defs>
<clipPath id="clip0">
<rect width="713" height="847.86" fill="white"/>
</clipPath>
</defs>
</svg>
