<svg width="760" height="678" viewBox="0 0 760 678" fill="none" xmlns="http://www.w3.org/2000/svg">
<g clip-path="url(#clip0)">
<path d="M283.2 481.6L195.82 625.81L196 640.46C189.61 640.51 183.28 640.403 177.01 640.14L181.36 451.81L181.24 450.36L181.4 450.08L181.81 432.28L85.9299 293.07L181.7 418.96L182.04 422.72L185.32 280.43L102.5 136.11L185.56 255.44L184.99 62.9999L184.81 -6.10352e-05H185.65L187.14 62.9999L190.22 192.97L265.69 98.5899L190.46 212.98L192.11 340.26L261.57 216.04L192.37 358.97L193.28 429.74L294.29 256.71L193.59 454.43L195.64 611.8L283.2 481.6Z" fill="white"/>
<path d="M682.29 438.71L654.64 493L585.37 629H569.47L569.81 614.28L486.28 493L473.93 475.07L487.57 493L569.7 600.96L570.04 604.72L572.62 493L573.32 462.43L490.5 318.11L573.56 437.44L572.69 142.65V141.67L572.72 142.64L578.22 374.97L653.69 280.59L578.46 394.98L579.73 493L580.11 522.26L596.47 493L649.57 398.04L603.59 493L580.37 540.97L581.28 611.74L650.6 493L682.29 438.71Z" fill="white"/>
<path d="M639.791 627.092C639.791 639.665 523.385 677.414 379.791 677.414C236.197 677.414 119.791 639.665 119.791 627.092C119.791 614.519 236.197 631.885 379.791 631.885C523.385 631.885 639.791 614.519 639.791 627.092Z" fill="#3F3D56"/>
<path opacity="0.2" d="M639.791 627.092C639.791 639.665 523.385 677.414 379.791 677.414C236.197 677.414 119.791 639.665 119.791 627.092C119.791 614.519 236.197 631.885 379.791 631.885C523.385 631.885 639.791 614.519 639.791 627.092Z" fill="black"/>
<path d="M379.791 649.857C523.385 649.857 639.791 639.665 639.791 627.092C639.791 614.519 523.385 604.327 379.791 604.327C236.197 604.327 119.791 614.519 119.791 627.092C119.791 639.665 236.197 649.857 379.791 649.857Z" fill="#3F3D56"/>
<path opacity="0.2" d="M377.791 639.371C436.885 639.371 484.791 634.894 484.791 629.371C484.791 623.848 436.885 619.371 377.791 619.371C318.696 619.371 270.791 623.848 270.791 629.371C270.791 634.894 318.696 639.371 377.791 639.371Z" fill="black"/>
<path d="M586.171 399.63H469.291V400.371H189.791V440.871C189.791 544.977 274.185 629.371 378.29 629.371H378.291C411.238 629.384 443.613 620.757 472.185 604.351C500.756 587.944 524.527 564.332 541.123 535.871H586.171C604.237 535.871 621.564 528.694 634.339 515.919C647.114 503.144 654.291 485.817 654.291 467.751C654.291 449.684 647.114 432.357 634.339 419.582C621.564 406.807 604.237 399.63 586.171 399.63ZM586.171 514.871H551.703C561.689 491.48 566.822 466.304 566.791 440.871V420.63H586.171C598.668 420.63 610.653 425.595 619.49 434.432C628.326 443.268 633.291 455.254 633.291 467.751C633.291 480.248 628.326 492.233 619.49 501.07C610.653 509.906 598.668 514.871 586.171 514.871V514.871Z" fill="#3F3D56"/>
<path d="M207.291 417.871V440.871C207.291 535.161 284.001 611.871 378.291 611.871C472.581 611.871 549.291 535.161 549.291 440.871V417.871H207.291Z" fill="black"/>
<path d="M333.579 580.539L294.431 540.192C290.48 536.121 288.309 530.647 288.395 524.974C288.48 519.301 290.815 513.895 294.887 509.944L354.097 452.493C355.508 451.123 357.174 450.043 359 449.314L371.861 444.175C374.635 443.066 377.676 442.807 380.597 443.43C383.519 444.054 386.189 445.531 388.269 447.675L429.151 489.808C431.167 491.886 432.542 494.501 433.112 497.34C433.681 500.18 433.42 503.123 432.36 505.818L428.034 516.82C427.248 518.818 426.044 520.626 424.503 522.121L363.828 580.995C359.756 584.945 354.282 587.117 348.609 587.031C342.936 586.946 337.53 584.61 333.579 580.539Z" fill="white"/>
<path d="M412.947 482.913L393.929 463.313L390.989 466.165L410.007 485.766L412.947 482.913Z" fill="#3F3D56"/>
<path d="M403.824 475.572C407.287 467.36 417.602 465.59 425.274 463.962C433.43 462.232 442.72 459.22 446.108 450.738C446.839 449.001 447.122 447.109 446.931 445.235C446.739 443.361 446.08 441.565 445.013 440.012C443.019 437.152 439.662 434.825 436.033 435.15C428.437 435.83 427.084 444.801 429.986 450.462C433.903 458.104 443.961 458.77 451.488 458.958C458.76 459.14 466.563 458.861 473.208 455.576C476.338 454.053 478.954 451.647 480.734 448.655C482.513 445.663 483.378 442.216 483.222 438.739C482.989 431.401 479.751 424.556 477.818 417.583C475.961 410.882 475.376 403.451 480.322 397.877C485.114 392.477 492.668 390.344 499.556 389.255C501.324 388.975 503.104 388.784 504.889 388.641C506.8 388.487 506.816 385.486 504.889 385.641C492.119 386.668 475.383 391.068 473.549 406.148C472.71 413.041 475.315 419.842 477.416 426.277C479.37 432.258 481.655 439.148 479.156 445.318C476.532 451.795 469.739 454.43 463.304 455.418C459.835 455.897 456.332 456.087 452.832 455.985C448.776 456.091 444.723 455.684 440.769 454.773C437.382 453.844 434.116 452.065 432.51 448.815C431.33 446.427 430.953 443.205 432.276 440.793C432.622 440.176 433.091 439.637 433.653 439.208C434.215 438.779 434.858 438.469 435.544 438.297C436.23 438.126 436.944 438.097 437.642 438.211C438.339 438.325 439.006 438.581 439.602 438.962C441.051 439.771 442.235 440.983 443.009 442.452C443.784 443.92 444.116 445.581 443.966 447.234C442.869 455.733 433.153 459.145 426.04 460.731C418.206 462.477 409.367 463.756 403.771 470.168C402.582 471.54 401.623 473.096 400.932 474.775C400.829 475.158 400.881 475.567 401.077 475.912C401.273 476.258 401.597 476.512 401.979 476.62C402.363 476.716 402.768 476.661 403.112 476.465C403.455 476.27 403.71 475.951 403.824 475.572V475.572Z" fill="white"/>
<path d="M282.791 463.371C288.866 463.371 293.791 458.446 293.791 452.371C293.791 446.296 288.866 441.371 282.791 441.371C276.716 441.371 271.791 446.296 271.791 452.371C271.791 458.446 276.716 463.371 282.791 463.371Z" fill="white"/>
<path d="M484.791 504.371C490.866 504.371 495.791 499.446 495.791 493.371C495.791 487.296 490.866 482.371 484.791 482.371C478.716 482.371 473.791 487.296 473.791 493.371C473.791 499.446 478.716 504.371 484.791 504.371Z" fill="white"/>
<path d="M429.791 559.371C434.209 559.371 437.791 555.789 437.791 551.371C437.791 546.952 434.209 543.371 429.791 543.371C425.372 543.371 421.791 546.952 421.791 551.371C421.791 555.789 425.372 559.371 429.791 559.371Z" fill="white"/>
<path d="M144.61 623.605C177.278 630.893 213.33 625.509 213.33 625.509C213.33 625.509 196.418 608.309 163.75 601.021C131.082 593.733 95.0293 599.118 95.0293 599.118C95.0293 599.118 111.942 616.318 144.61 623.605Z" fill="#E6E6E6"/>
<path d="M147.832 635.895C183.398 636.921 213.578 625.459 213.578 625.459C193.636 616.826 172.246 612.025 150.527 611.306C114.961 610.28 84.7815 621.742 84.7815 621.742C104.724 630.375 126.113 635.176 147.832 635.895V635.895Z" fill="black"/>
<path d="M150.358 611.348C175.767 624.158 213.186 625.759 213.186 625.759C213.186 625.759 209.409 606.592 184.001 593.782C158.593 580.972 121.174 579.371 121.174 579.371C121.174 579.371 124.95 598.538 150.358 611.348Z" fill="black"/>
<path d="M760 63V0H63H0V63V300V363V624H63V363H760V300H63V63H760Z" fill="white"/>
<path d="M760 5H697V623H760V5Z" fill="white"/>
<path d="M120.133 461.015C114.325 470.027 107.863 470.315 102.392 466.79C102.265 466.708 102.14 466.625 102.016 466.541C101.767 466.371 101.525 466.195 101.29 466.014C96.6248 462.41 94.9199 456.63 100.321 448.248C105.91 439.574 122.141 434.541 123.351 434.176H123.352L123.422 434.155C123.422 434.155 125.94 452.003 120.133 461.015Z" fill="#E6E6E6"/>
<path d="M523.133 229.839C517.325 238.852 510.863 239.14 505.392 235.615C505.265 235.533 505.14 235.45 505.016 235.365C504.767 235.195 504.525 235.019 504.29 234.838C499.625 231.234 497.92 225.454 503.321 217.072C508.91 208.399 525.141 203.366 526.351 203H526.352L526.422 202.979C526.422 202.979 528.94 220.827 523.133 229.839Z" fill="#E6E6E6"/>
<path d="M293.168 162.954C300.431 170.841 299.085 177.168 294.297 181.577C294.186 181.679 294.074 181.78 293.961 181.878C293.734 182.077 293.503 182.267 293.269 182.448C288.607 186.057 282.584 186.254 275.83 178.919C268.84 171.329 268.05 154.354 268 153.091L268 153.089L267.998 153.017C267.998 153.017 285.906 155.067 293.168 162.954Z" fill="#E6E6E6"/>
<path d="M531.176 416.747L513.947 425.438C512.299 426.343 510.361 426.558 508.555 426.035C506.75 425.513 505.226 424.296 504.317 422.651L492.46 399.147C492.177 398.585 492.015 397.969 491.984 397.339L491.758 392.876C491.73 391.876 491.992 390.89 492.512 390.036C493.032 389.181 493.787 388.495 494.687 388.06L512.679 378.984C513.539 378.534 514.507 378.332 515.475 378.403C516.443 378.473 517.372 378.813 518.157 379.383L521.201 381.695C521.75 382.11 522.197 382.646 522.508 383.26L534.658 407.346C535.44 409.055 535.513 411.004 534.86 412.767C534.208 414.529 532.883 415.96 531.176 416.747V416.747Z" fill="white"/>
<path d="M508.686 383.439L500.316 387.661L500.905 388.828L509.275 384.606L508.686 383.439Z" fill="#3F3D56"/>
<path d="M517.452 387.686L498.884 396.946L501.562 402.315L520.129 393.055L517.452 387.686Z" fill="black"/>
<path d="M521.452 394.686L502.884 403.946L505.562 409.315L524.129 400.055L521.452 394.686Z" fill="black"/>
<path d="M525.452 402.686L506.884 411.946L509.562 417.315L528.129 408.055L525.452 402.686Z" fill="black"/>
</g>
<defs>
<clipPath id="clip0">
<rect width="760" height="677.414" fill="white"/>
</clipPath>
</defs>
</svg>
