<svg width="325" height="488" viewBox="0 0 325 488" fill="none" xmlns="http://www.w3.org/2000/svg">
<path d="M219.256 230.34L303.36 212.198L304.453 211.962C305.009 211.842 305.589 211.88 306.125 212.074C306.66 212.268 307.13 212.609 307.481 213.058C307.831 213.507 308.048 214.046 308.105 214.612C308.163 215.179 308.06 215.75 307.807 216.261L274.415 284.074C274.199 284.509 273.881 284.887 273.489 285.174C273.096 285.461 272.641 285.65 272.16 285.725C271.678 285.8 271.185 285.756 270.723 285.598C270.262 285.44 269.846 285.171 269.511 284.816L246.317 260.36C246.152 260.182 245.952 260.04 245.729 259.943C245.507 259.845 245.266 259.795 245.023 259.795C244.693 259.791 244.368 259.876 244.082 260.042C243.797 260.208 243.562 260.448 243.402 260.738L238.652 269.525C238.348 270.111 237.858 270.579 237.258 270.853C236.658 271.128 235.984 271.195 235.342 271.042L235.318 271.037C234.669 270.899 234.084 270.547 233.659 270.037C233.234 269.527 232.992 268.889 232.973 268.225L232.021 247.941C232.01 247.688 231.947 247.44 231.836 247.212C231.716 246.987 231.554 246.787 231.359 246.624L217.978 235.64C217.538 235.279 217.209 234.801 217.028 234.262C216.847 233.722 216.822 233.143 216.956 232.589C217.089 232.036 217.376 231.532 217.782 231.134C218.189 230.736 218.7 230.461 219.256 230.34H219.256ZM218.742 234.706L232.123 245.69C232.297 245.83 232.455 245.99 232.594 246.166L303.512 214.003C303.574 213.974 303.64 213.951 303.707 213.935C303.98 213.864 304.27 213.892 304.525 214.012C304.781 214.132 304.986 214.338 305.106 214.594C305.226 214.85 305.253 215.14 305.181 215.413C305.11 215.686 304.946 215.926 304.716 216.091L246.406 258.924C246.702 259.078 246.969 259.282 247.196 259.526L270.389 283.982C270.59 284.194 270.84 284.354 271.116 284.449C271.393 284.543 271.688 284.57 271.977 284.526C272.265 284.483 272.54 284.37 272.775 284.197C273.011 284.025 273.202 283.798 273.332 283.537L306.724 215.724C306.874 215.418 306.934 215.075 306.898 214.736C306.863 214.397 306.732 214.075 306.522 213.807C306.313 213.538 306.032 213.334 305.711 213.217C305.391 213.101 305.044 213.076 304.711 213.147L303.592 213.389L219.514 231.525C219.181 231.597 218.874 231.762 218.629 232.001C218.385 232.239 218.212 232.542 218.132 232.874C218.051 233.206 218.066 233.553 218.174 233.877C218.282 234.202 218.479 234.489 218.742 234.706V234.706Z" fill="black"/>
<path d="M324.033 485.118H0V487.358H324.033V485.118Z" fill="#3F3D56"/>
<path d="M118.852 401.032C118.852 401.032 100.554 425.823 96.4225 429.955C92.2908 434.087 91.1103 449.433 91.1103 449.433L98.1933 465.961L94.0615 474.224L62.1876 442.35L96.4225 391.588L118.852 401.032Z" fill="#FFB8B8"/>
<path d="M196.766 249.336C196.766 249.336 130.535 451.15 123.452 455.872C116.369 460.594 81.4864 430.955 71.452 423.872C61.4176 416.789 147.186 282.04 147.186 282.04C133.61 237.771 140.102 227.497 140.102 227.497L196.766 249.336Z" fill="#2F2E41"/>
<path d="M92.881 469.502C92.881 469.502 92.8809 462.419 95.1606 458.884C97.4404 455.35 101.735 471.273 101.735 471.273C101.735 471.273 127.706 478.356 115.901 486.029C104.096 493.703 69.2707 469.502 59.2363 463.009C49.202 456.516 52.7435 448.843 58.0558 443.531L68.3853 433.201L92.881 469.502Z" fill="#2F2E41"/>
<path d="M218.015 414.018C218.015 414.018 223.328 429.365 228.05 444.121C232.772 458.877 255.202 466.551 255.202 466.551L259.333 477.175L246.938 483.078L210.932 474.224C210.932 474.224 212.113 462.419 212.113 458.287C212.113 454.155 193.225 419.33 193.225 419.33L218.015 414.018Z" fill="#FFB8B8"/>
<path d="M171.385 72.8494C185.077 72.8494 196.176 61.7502 196.176 48.0586C196.176 34.367 185.077 23.2678 171.385 23.2678C157.694 23.2678 146.594 34.367 146.594 48.0586C146.594 61.7502 157.694 72.8494 171.385 72.8494Z" fill="#FFB8B8"/>
<path d="M157.809 61.0442C157.809 64.5857 140.101 91.7375 140.101 91.7375L166.042 103.315L177.878 69.3078L157.809 61.0442Z" fill="#FFB8B8"/>
<path d="M181.419 190.311C186.29 190.286 190.975 192.172 194.471 195.563C197.967 198.954 199.994 203.58 200.117 208.449L200.898 239.302L205.03 246.385C205.03 246.385 230.452 435.97 230.452 441.872C230.452 447.775 205.208 464.053 190.452 462.872C183.152 462.288 166.785 395.222 160.291 358.505C155.667 332.366 151.156 303.92 146.625 282.92C145.112 275.348 143.13 267.877 140.692 260.551C127.706 224.545 150.136 190.311 150.136 190.311H181.419V190.311Z" fill="#2F2E41"/>
<path d="M250.184 474.519C250.184 474.519 253.431 475.405 249.889 474.224C246.348 473.044 247.528 466.551 247.674 463.251C247.82 459.951 282.353 470.683 282.353 478.946C282.353 487.21 238.084 487.21 225.098 486.029C212.113 484.849 209.162 486.029 207.391 477.766C205.62 469.502 212.408 457.992 212.408 457.992L250.184 474.519Z" fill="#2F2E41"/>
<path d="M152.48 211.761C157.096 211.761 167.024 199.904 172.22 205.1C175.999 208.879 179.205 212.509 182.035 215.712C190.156 224.906 197.255 233.332 202.189 227.286C202.935 226.372 200.428 228.483 202.518 227.06C203.385 226.47 204.048 225.624 204.413 224.641C204.778 223.658 204.829 222.585 204.557 221.571C197.399 199.144 192.941 177.658 198.633 159.712C199.056 158.288 199.258 156.807 199.232 155.321C199.232 155.103 199.242 154.886 199.262 154.668C199.563 151.356 199.487 139.495 185.897 125.905C173.476 113.484 171.093 105.851 170.779 102.407C170.705 101.605 150.683 80.8318 150.683 80.8318C149.635 80.3916 148.468 80.3193 147.374 80.6265C146.279 80.9338 145.321 81.6025 144.655 82.5239L138.241 91.3424C131.27 105.146 128.227 120.6 129.446 136.016C131.182 156.026 134.197 195.597 136.673 209.871C136.878 211.172 137.568 212.347 138.603 213.16C139.317 213.713 140.168 214.061 141.065 214.167C141.961 214.273 142.87 214.133 143.693 213.762C146.447 212.48 149.442 211.798 152.48 211.761V211.761Z" fill="black"/>
<path d="M177.335 49.0051L172.884 44.302C173.255 69.0666 196.62 82.8842 196.62 82.8842L144.452 77.6836L143.134 71.1143L140.408 76.5239L134.039 74.9109L132.207 70.9055L128.276 73.0448L136.341 41.1989C144.306 10.8188 168.594 15.2752 168.594 15.2752C202.6 4.6388 198.433 37.0745 198.433 37.0745L177.335 49.0051Z" fill="#2F2E41"/>
<path opacity="0.2" d="M157.466 366.536L148.005 282.86L159.638 360.371L157.466 366.536Z" fill="black"/>
<path d="M140.627 28.7102C147.872 28.7102 153.745 22.8373 153.745 15.5928C153.745 8.34821 147.872 2.47534 140.627 2.47534C133.383 2.47534 127.51 8.34821 127.51 15.5928C127.51 22.8373 133.383 28.7102 140.627 28.7102Z" fill="#2F2E41"/>
<path d="M142.71 26.2196C142.983 26.219 143.255 26.2261 143.531 26.2083L143.558 26.2066C147.029 25.9781 150.266 24.3808 152.559 21.7659C154.852 19.151 156.013 15.7326 155.786 12.2621C155.56 8.79163 153.964 5.55326 151.35 3.25901C148.736 0.964757 145.318 -0.197593 141.848 0.0275343C141.572 0.0452943 141.303 0.0870669 141.032 0.121437C144.368 0.111867 147.581 1.37493 150.018 3.65308C152.454 5.93123 153.929 9.05291 154.143 12.3815C154.357 15.7102 153.294 18.9951 151.169 21.5664C149.045 24.1378 146.019 25.802 142.71 26.2196V26.2196Z" fill="#2F2E41"/>
<path d="M173.421 55.7648C175.685 55.7648 177.52 53.1955 177.52 50.026C177.52 46.8565 175.685 44.2871 173.421 44.2871C171.157 44.2871 169.322 46.8565 169.322 50.026C169.322 53.1955 171.157 55.7648 173.421 55.7648Z" fill="#FFB8B8"/>
<path d="M222.515 240.348L239.367 252.274C240.833 253.312 242.046 254.669 242.914 256.242C243.781 257.816 244.281 259.566 244.376 261.361C244.471 263.155 244.158 264.948 243.461 266.604C242.764 268.261 241.701 269.738 240.351 270.925C239.052 272.068 237.518 272.914 235.858 273.403C234.198 273.893 232.451 274.014 230.739 273.76C229.027 273.505 227.392 272.88 225.946 271.928C224.501 270.976 223.28 269.72 222.37 268.248L212.618 252.481L178.302 200.621L192.522 190.159L222.515 240.348Z" fill="#FEB8B8"/>
<path opacity="0.2" d="M195.452 193.872C195.519 203.063 186.436 211.044 173.606 212.198L144.175 149.663C141.085 143.1 139.928 135.792 140.839 128.596C141.749 121.399 144.689 114.61 149.315 109.022V109.022L179.025 145.128C179.948 160.823 186.644 177.092 195.452 193.872Z" fill="black"/>
<path d="M195.452 189.872C195.519 199.063 190.436 205.044 177.606 206.198L148.175 143.663C145.085 137.1 143.928 129.792 144.839 122.596C145.749 115.399 148.689 108.61 153.315 103.022V103.022L183.025 139.128C183.948 154.823 186.644 173.092 195.452 189.872Z" fill="black"/>
</svg>
